<svg width="177" height="34" viewBox="0 0 177 34" fill="none" xmlns="http://www.w3.org/2000/svg">
<path d="M15.9704 22.6667C22.2705 22.6667 27.3778 17.5926 27.3778 11.3333C27.3778 5.07411 22.2705 0 15.9704 0H0V22.6667H15.9704Z" fill="#18AFA1"/>
<path d="M0 0L27.3778 34H9.12593L0 22.6667V0Z" fill="black"/>
<path d="M18.094 22.4706C17.4059 22.5993 16.6961 22.6667 15.9704 22.6667H0V0L18.094 22.4706Z" fill="#3C3C3C"/>
<path d="M39.5156 9.7057V24.2512H36V9.7057H39.5156Z" fill="#18AFA1"/>
<path d="M54.9258 14.9756H51.3746C51.3273 14.611 51.2302 14.2819 51.0835 13.9884C50.9367 13.6948 50.7425 13.4439 50.5011 13.2355C50.2596 13.0272 49.9731 12.8686 49.6417 12.7597C49.315 12.646 48.9528 12.5892 48.555 12.5892C47.8495 12.5892 47.2411 12.762 46.7298 13.1077C46.2231 13.4533 45.8325 13.9529 45.5579 14.6063C45.288 15.2597 45.1531 16.0504 45.1531 16.9784C45.1531 17.9443 45.2904 18.754 45.565 19.4074C45.8443 20.0561 46.235 20.5461 46.7369 20.8776C47.2435 21.2043 47.8424 21.3676 48.5337 21.3676C48.922 21.3676 49.2747 21.3179 49.592 21.2185C49.9139 21.1191 50.1957 20.9746 50.4371 20.7852C50.6834 20.5911 50.8846 20.3567 51.0408 20.0821C51.2018 19.8028 51.3131 19.4879 51.3746 19.1375L54.9258 19.1588C54.8642 19.8028 54.6772 20.4372 54.3647 21.0622C54.0569 21.6872 53.6332 22.2578 53.0934 22.7739C52.5536 23.2852 51.8955 23.6924 51.119 23.9955C50.3472 24.2985 49.4618 24.45 48.4627 24.45C47.1464 24.45 45.9674 24.1612 44.9258 23.5835C43.8888 23.0012 43.0697 22.1536 42.4684 21.0409C41.8671 19.9282 41.5664 18.5741 41.5664 16.9784C41.5664 15.378 41.8718 14.0215 42.4826 12.9088C43.0934 11.7961 43.9196 10.951 44.9613 10.3733C46.003 9.79566 47.1701 9.50684 48.4627 9.50684C49.3434 9.50684 50.1578 9.62994 50.9059 9.87615C51.654 10.1176 52.3121 10.4727 52.8803 10.9415C53.4485 11.4055 53.9102 11.9761 54.2653 12.6531C54.6204 13.3302 54.8406 14.1044 54.9258 14.9756Z" fill="#18AFA1"/>
<path d="M56.9375 24.2512V9.7057H62.946C64.035 9.7057 64.9749 9.9022 65.7656 10.2952C66.5611 10.6834 67.1742 11.2422 67.6051 11.9713C68.036 12.6958 68.2514 13.5551 68.2514 14.5494C68.2514 15.558 68.0312 16.415 67.5909 17.1205C67.1506 17.8212 66.5256 18.3563 65.7159 18.7256C64.9063 19.0902 63.9474 19.2725 62.8395 19.2725H59.0398V16.5026H62.1861C62.7164 16.5026 63.1591 16.4339 63.5142 16.2966C63.8741 16.1546 64.1463 15.9415 64.331 15.6574C64.5156 15.3686 64.608 14.9993 64.608 14.5494C64.608 14.0996 64.5156 13.728 64.331 13.4344C64.1463 13.1361 63.8741 12.9136 63.5142 12.7668C63.1544 12.6153 62.7116 12.5395 62.1861 12.5395H60.4531V24.2512H56.9375ZM65.1264 17.6034L68.7486 24.2512H64.9134L61.3622 17.6034H65.1264Z" fill="#18AFA1"/>
<path d="M79.6825 24.2512H74.9737V9.7057H79.8317C81.2569 9.7057 82.4808 9.99689 83.5036 10.5793C84.5263 11.1569 85.3099 11.9879 85.8544 13.0722C86.4036 14.1517 86.6783 15.4467 86.6783 16.9571C86.6783 18.4723 86.4013 19.7744 85.8473 20.8634C85.2981 21.9524 84.5026 22.7905 83.4609 23.3776C82.4193 23.96 81.1598 24.2512 79.6825 24.2512ZM77.1683 22.3335H79.5618C80.6697 22.3335 81.5907 22.1252 82.3246 21.7085C83.0585 21.2871 83.6077 20.6787 83.9723 19.8833C84.3369 19.0831 84.5192 18.1077 84.5192 16.9571C84.5192 15.816 84.3369 14.8477 83.9723 14.0523C83.6125 13.2568 83.075 12.6531 82.3601 12.2412C81.6451 11.8293 80.7573 11.6233 79.6967 11.6233H77.1683V22.3335Z" fill="black"/>
<path d="M92.4116 24.4926C91.7203 24.4926 91.0953 24.3648 90.5366 24.1091C89.9779 23.8487 89.5352 23.4723 89.2085 22.9798C88.8865 22.4874 88.7255 21.8837 88.7255 21.1688C88.7255 20.5532 88.8439 20.0466 89.0806 19.6489C89.3174 19.2512 89.637 18.9363 90.0394 18.7043C90.4419 18.4723 90.8917 18.2971 91.3889 18.1787C91.886 18.0603 92.3926 17.9704 92.9087 17.9088C93.5621 17.8331 94.0924 17.7715 94.4996 17.7242C94.9068 17.6721 95.2028 17.5892 95.3874 17.4756C95.5721 17.3619 95.6644 17.1773 95.6644 16.9216V16.8719C95.6644 16.2516 95.4892 15.771 95.1389 15.4301C94.7932 15.0892 94.2771 14.9188 93.5906 14.9188C92.8756 14.9188 92.3121 15.0774 91.9002 15.3946C91.493 15.7071 91.2113 16.0551 91.055 16.4387L89.0593 15.9841C89.296 15.3212 89.6417 14.7862 90.0962 14.379C90.5555 13.9671 91.0835 13.6688 91.68 13.4841C92.2766 13.2947 92.904 13.2 93.5621 13.2C93.9978 13.2 94.4594 13.2521 94.9471 13.3563C95.4395 13.4557 95.8988 13.6404 96.3249 13.9102C96.7558 14.1801 97.1085 14.566 97.3832 15.0679C97.6578 15.5651 97.7951 16.2114 97.7951 17.0068V24.2512H95.7212V22.7597H95.636C95.4987 23.0343 95.2927 23.3042 95.0181 23.5693C94.7435 23.8345 94.3907 24.0547 93.9599 24.2298C93.529 24.405 93.0129 24.4926 92.4116 24.4926ZM92.8732 22.7881C93.4603 22.7881 93.9622 22.6721 94.3789 22.4401C94.8003 22.2081 95.1199 21.905 95.3377 21.531C95.5603 21.1522 95.6715 20.7474 95.6715 20.3165V18.9102C95.5958 18.986 95.449 19.057 95.2312 19.1233C95.0181 19.1849 94.7743 19.2393 94.4996 19.2867C94.225 19.3293 93.9575 19.3695 93.6971 19.4074C93.4367 19.4405 93.2189 19.469 93.0437 19.4926C92.6317 19.5447 92.2553 19.6323 91.9144 19.7554C91.5782 19.8785 91.3084 20.0561 91.1048 20.2881C90.9059 20.5154 90.8065 20.8184 90.8065 21.1972C90.8065 21.7227 91.0006 22.1205 91.3889 22.3904C91.7771 22.6555 92.2719 22.7881 92.8732 22.7881Z" fill="black"/>
<path d="M108.798 16.0054L106.874 16.3463C106.793 16.1001 106.665 15.8657 106.49 15.6432C106.32 15.4207 106.088 15.2384 105.794 15.0963C105.5 14.9543 105.134 14.8833 104.693 14.8833C104.092 14.8833 103.59 15.0182 103.188 15.2881C102.785 15.5532 102.584 15.8965 102.584 16.3179C102.584 16.6825 102.719 16.9761 102.989 17.1986C103.259 17.4211 103.694 17.6034 104.295 17.7455L106.028 18.1432C107.032 18.3752 107.78 18.7327 108.273 19.2156C108.765 19.6986 109.011 20.326 109.011 21.0977C109.011 21.7512 108.822 22.3335 108.443 22.8449C108.069 23.3515 107.546 23.7493 106.874 24.0381C106.206 24.3269 105.432 24.4713 104.551 24.4713C103.33 24.4713 102.333 24.2109 101.561 23.6901C100.789 23.1645 100.316 22.4188 100.141 21.4529L102.193 21.1404C102.321 21.6754 102.584 22.0802 102.982 22.3548C103.379 22.6247 103.898 22.7597 104.537 22.7597C105.233 22.7597 105.789 22.6153 106.206 22.3264C106.623 22.0329 106.831 21.6754 106.831 21.254C106.831 20.9131 106.703 20.6266 106.447 20.3946C106.196 20.1626 105.811 19.9874 105.29 19.8691L103.443 19.4642C102.425 19.2322 101.672 18.8629 101.185 18.3563C100.702 17.8496 100.46 17.2081 100.46 16.4316C100.46 15.7876 100.64 15.2242 101 14.7412C101.36 14.2583 101.857 13.8818 102.491 13.6119C103.126 13.3373 103.853 13.2 104.672 13.2C105.851 13.2 106.779 13.4557 107.456 13.9671C108.133 14.4737 108.58 15.1531 108.798 16.0054Z" fill="black"/>
<path d="M113.47 17.7739V24.2512H111.346V9.7057H113.441V15.1176H113.576C113.832 14.5305 114.223 14.0641 114.748 13.7185C115.274 13.3728 115.96 13.2 116.808 13.2C117.556 13.2 118.209 13.3539 118.768 13.6617C119.332 13.9694 119.767 14.4287 120.075 15.0395C120.387 15.6456 120.544 16.4031 120.544 17.3122V24.2512H118.42V17.5679C118.42 16.7677 118.214 16.1475 117.802 15.7071C117.39 15.262 116.817 15.0395 116.083 15.0395C115.582 15.0395 115.132 15.146 114.734 15.3591C114.341 15.5722 114.031 15.8847 113.804 16.2966C113.581 16.7038 113.47 17.1962 113.47 17.7739Z" fill="black"/>
<path d="M123.548 24.2512V9.7057H125.672V15.1105H125.799C125.922 14.8833 126.1 14.6205 126.332 14.3222C126.564 14.0239 126.886 13.7635 127.298 13.5409C127.71 13.3137 128.254 13.2 128.931 13.2C129.812 13.2 130.598 13.4226 131.289 13.8676C131.981 14.3127 132.523 14.9543 132.916 15.7923C133.314 16.6304 133.512 17.6389 133.512 18.8179C133.512 19.9969 133.316 21.0078 132.923 21.8506C132.53 22.6887 131.99 23.335 131.304 23.7895C130.617 24.2393 129.833 24.4642 128.953 24.4642C128.29 24.4642 127.748 24.353 127.326 24.1304C126.91 23.9079 126.583 23.6475 126.346 23.3492C126.109 23.0509 125.927 22.7857 125.799 22.5537H125.622V24.2512H123.548ZM125.629 18.7966C125.629 19.5637 125.74 20.236 125.963 20.8137C126.185 21.3913 126.507 21.8435 126.929 22.1702C127.35 22.4922 127.866 22.6531 128.477 22.6531C129.111 22.6531 129.642 22.4851 130.068 22.1489C130.494 21.808 130.816 21.3463 131.034 20.7639C131.256 20.1816 131.368 19.5258 131.368 18.7966C131.368 18.0769 131.259 17.4306 131.041 16.8577C130.828 16.2848 130.506 15.8326 130.075 15.5012C129.649 15.1697 129.116 15.004 128.477 15.004C127.861 15.004 127.341 15.1626 126.914 15.4798C126.493 15.7971 126.173 16.2398 125.956 16.808C125.738 17.3762 125.629 18.039 125.629 18.7966Z" fill="black"/>
<path d="M140.492 24.4713C139.469 24.4713 138.577 24.2369 137.815 23.7682C137.052 23.2994 136.46 22.6437 136.039 21.8009C135.618 20.9581 135.407 19.9732 135.407 18.8463C135.407 17.7147 135.618 16.7251 136.039 15.8776C136.46 15.03 137.052 14.3719 137.815 13.9031C138.577 13.4344 139.469 13.2 140.492 13.2C141.515 13.2 142.407 13.4344 143.17 13.9031C143.932 14.3719 144.524 15.03 144.945 15.8776C145.367 16.7251 145.577 17.7147 145.577 18.8463C145.577 19.9732 145.367 20.9581 144.945 21.8009C144.524 22.6437 143.932 23.2994 143.17 23.7682C142.407 24.2369 141.515 24.4713 140.492 24.4713ZM140.499 22.6887C141.162 22.6887 141.711 22.5135 142.147 22.1631C142.583 21.8127 142.905 21.3463 143.113 20.7639C143.326 20.1816 143.433 19.54 143.433 18.8392C143.433 18.1432 143.326 17.504 143.113 16.9216C142.905 16.3345 142.583 15.8634 142.147 15.5083C141.711 15.1531 141.162 14.9756 140.499 14.9756C139.832 14.9756 139.278 15.1531 138.837 15.5083C138.402 15.8634 138.077 16.3345 137.864 16.9216C137.656 17.504 137.552 18.1432 137.552 18.8392C137.552 19.54 137.656 20.1816 137.864 20.7639C138.077 21.3463 138.402 21.8127 138.837 22.1631C139.278 22.5135 139.832 22.6887 140.499 22.6887Z" fill="black"/>
<path d="M151.123 24.4926C150.431 24.4926 149.806 24.3648 149.248 24.1091C148.689 23.8487 148.246 23.4723 147.919 22.9798C147.597 22.4874 147.436 21.8837 147.436 21.1688C147.436 20.5532 147.555 20.0466 147.792 19.6489C148.028 19.2512 148.348 18.9363 148.75 18.7043C149.153 18.4723 149.603 18.2971 150.1 18.1787C150.597 18.0603 151.104 17.9704 151.62 17.9088C152.273 17.8331 152.803 17.7715 153.211 17.7242C153.618 17.6721 153.914 17.5892 154.098 17.4756C154.283 17.3619 154.375 17.1773 154.375 16.9216V16.8719C154.375 16.2516 154.2 15.771 153.85 15.4301C153.504 15.0892 152.988 14.9188 152.301 14.9188C151.587 14.9188 151.023 15.0774 150.611 15.3946C150.204 15.7071 149.922 16.0551 149.766 16.4387L147.77 15.9841C148.007 15.3212 148.353 14.7862 148.807 14.379C149.266 13.9671 149.794 13.6688 150.391 13.4841C150.988 13.2947 151.615 13.2 152.273 13.2C152.709 13.2 153.17 13.2521 153.658 13.3563C154.15 13.4557 154.61 13.6404 155.036 13.9102C155.467 14.1801 155.819 14.566 156.094 15.0679C156.369 15.5651 156.506 16.2114 156.506 17.0068V24.2512H154.432V22.7597H154.347C154.21 23.0343 154.004 23.3042 153.729 23.5693C153.454 23.8345 153.102 24.0547 152.671 24.2298C152.24 24.405 151.724 24.4926 151.123 24.4926ZM151.584 22.7881C152.171 22.7881 152.673 22.6721 153.09 22.4401C153.511 22.2081 153.831 21.905 154.049 21.531C154.271 21.1522 154.382 20.7474 154.382 20.3165V18.9102C154.307 18.986 154.16 19.057 153.942 19.1233C153.729 19.1849 153.485 19.2393 153.211 19.2867C152.936 19.3293 152.668 19.3695 152.408 19.4074C152.148 19.4405 151.93 19.469 151.755 19.4926C151.343 19.5447 150.966 19.6323 150.625 19.7554C150.289 19.8785 150.019 20.0561 149.816 20.2881C149.617 20.5154 149.517 20.8184 149.517 21.1972C149.517 21.7227 149.712 22.1205 150.1 22.3904C150.488 22.6555 150.983 22.7881 151.584 22.7881Z" fill="black"/>
<path d="M159.335 24.2512V13.3421H161.387V15.075H161.501C161.7 14.4879 162.05 14.0262 162.552 13.6901C163.058 13.3492 163.631 13.1787 164.271 13.1787C164.403 13.1787 164.559 13.1834 164.739 13.1929C164.924 13.2024 165.068 13.2142 165.173 13.2284V15.2597C165.087 15.236 164.936 15.21 164.718 15.1816C164.5 15.1484 164.282 15.1318 164.065 15.1318C163.563 15.1318 163.115 15.2384 162.722 15.4514C162.334 15.6598 162.026 15.951 161.799 16.325C161.572 16.6943 161.458 17.1157 161.458 17.5892V24.2512H159.335Z" fill="black"/>
<path d="M170.703 24.4642C169.823 24.4642 169.037 24.2393 168.346 23.7895C167.659 23.335 167.119 22.6887 166.726 21.8506C166.338 21.0078 166.144 19.9969 166.144 18.8179C166.144 17.6389 166.34 16.6304 166.733 15.7923C167.131 14.9543 167.676 14.3127 168.367 13.8676C169.058 13.4226 169.842 13.2 170.718 13.2C171.395 13.2 171.939 13.3137 172.351 13.5409C172.768 13.7635 173.09 14.0239 173.317 14.3222C173.549 14.6205 173.729 14.8833 173.857 15.1105H173.985V9.7057H176.108V24.2512H174.034V22.5537H173.857C173.729 22.7857 173.544 23.0509 173.303 23.3492C173.066 23.6475 172.739 23.9079 172.323 24.1304C171.906 24.353 171.366 24.4642 170.703 24.4642ZM171.172 22.6531C171.783 22.6531 172.299 22.4922 172.721 22.1702C173.147 21.8435 173.469 21.3913 173.686 20.8137C173.909 20.236 174.02 19.5637 174.02 18.7966C174.02 18.039 173.911 17.3762 173.694 16.808C173.476 16.2398 173.156 15.7971 172.735 15.4798C172.313 15.1626 171.792 15.004 171.172 15.004C170.533 15.004 170 15.1697 169.574 15.5012C169.148 15.8326 168.826 16.2848 168.608 16.8577C168.395 17.4306 168.289 18.0769 168.289 18.7966C168.289 19.5258 168.398 20.1816 168.615 20.7639C168.833 21.3463 169.155 21.808 169.581 22.1489C170.012 22.4851 170.542 22.6531 171.172 22.6531Z" fill="black"/>
</svg>
