<svg width="56" height="56" viewBox="0 0 56 56" fill="none" xmlns="http://www.w3.org/2000/svg">
<rect width="56" height="56" rx="12.8" fill="url(#paint0_linear_116_528)"/>
<path d="M18.8641 12.712C20.7652 12.7136 22.6158 12.0995 24.1388 10.9615L26.7365 9.02042C27.7068 8.34085 28.9986 8.34086 29.9689 9.02042L32.734 11.0257C34.2269 12.1084 36.0222 12.6947 37.8664 12.7018L40.0647 12.7103C42.2427 12.7103 44.0084 14.4759 44.0084 16.654C44.0084 18.6408 44.8875 20.5257 46.4097 21.8025L46.5042 21.8817C46.6956 22.0423 46.8062 22.2794 46.8062 22.5292V44.8413C46.8062 46.397 45.5451 47.6582 43.9893 47.6582H12.8108C11.2552 47.6582 9.9939 46.397 9.9939 44.8413L9.99527 22.5291C9.99527 22.2793 10.1059 22.0423 10.297 21.8818L10.3897 21.8041C11.9122 20.5268 12.7916 18.6413 12.7916 16.654C12.7916 14.4759 14.5571 12.7103 16.7353 12.7103L18.8641 12.712Z" fill="#FF0000" fill-opacity="0.01"/>
<mask id="mask0_116_528" style="mask-type:alpha" maskUnits="userSpaceOnUse" x="9" y="7" width="38" height="41">
<path d="M21.23 12.7107L26.7838 8.05167C27.7541 7.3721 29.0459 7.3721 30.0162 8.05167L35.5704 12.7107H40.0647C42.2427 12.7107 44.0084 14.4763 44.0084 16.6544V19.7887L46.5042 21.8822C46.6956 22.0427 46.8062 22.2798 46.8062 22.5296V44.8417C46.8062 46.3974 45.5451 47.6586 43.9893 47.6586H12.8108C11.2552 47.6586 9.9939 46.3974 9.9939 44.8417L9.99527 22.5296C9.99527 22.2797 10.1059 22.0427 10.297 21.8822L12.7916 19.7896V16.6544C12.7916 14.4763 14.5571 12.7107 16.7353 12.7107H21.23Z" fill="#EBE9FF"/>
</mask>
<g mask="url(#mask0_116_528)">
<path d="M25.8842 9.23498L11.2448 21.1206C10.4543 21.7625 9.99518 22.7264 9.99512 23.7447L9.9939 44.8414C9.9939 46.3971 11.2551 47.6583 12.8108 47.6583H43.9893C45.545 47.6583 46.8062 46.3971 46.8062 44.8414V23.7488C46.8062 22.7282 46.3451 21.7622 45.5515 21.1204L30.8499 9.23029C29.4013 8.05874 27.3305 8.0607 25.8842 9.23498Z" fill="#60C5C0"/>
<path d="M43.2083 12.71C43.6501 12.71 44.0083 13.0681 44.0083 13.51L44.0083 46.8579C44.0083 47.2997 43.6501 47.6579 43.2083 47.6579L13.5915 47.6579C13.1496 47.6579 12.7915 47.2997 12.7915 46.8579L12.7915 13.51C12.7915 13.0681 13.1496 12.71 13.5915 12.71L43.2083 12.71Z" fill="#F9F9FF"/>
<rect x="19.6001" y="25.209" width="17.6" height="1.6" rx="0.8" fill="#199389"/>
<rect x="19.6001" y="18.8086" width="17.6" height="1.6" rx="0.8" fill="#199389"/>
<rect x="23.2" y="22.0088" width="10" height="1.6" rx="0.8" fill="#199389"/>
<path d="M24.171 34.8143L9.82544 23.2373L9.92502 46.5046L24.171 34.8143Z" fill="#82D2D2"/>
<path d="M32.7023 35.018L47.2349 23.4043L47.0333 45.5338L32.7023 35.018Z" fill="#82D2D2"/>
<path d="M3.90689 46.9547L25.2226 32.0246C27.1631 30.6655 29.7465 30.6655 31.6869 32.0246L57.3922 50.0292C57.8433 50.3451 57.6197 51.054 57.069 51.054L5.19973 51.054C2.99674 51.054 2.10249 48.2185 3.90689 46.9547Z" fill="url(#paint1_linear_116_528)"/>
</g>
<defs>
<linearGradient id="paint0_linear_116_528" x1="28" y1="0" x2="28" y2="56" gradientUnits="userSpaceOnUse">
<stop stop-color="#DCF9F7"/>
<stop offset="1" stop-color="#ECFFFC"/>
</linearGradient>
<linearGradient id="paint1_linear_116_528" x1="28.4548" y1="29.7607" x2="28.4548" y2="51.054" gradientUnits="userSpaceOnUse">
<stop stop-color="#7FFFF9"/>
<stop offset="1" stop-color="#2A9690"/>
</linearGradient>
</defs>
</svg>
