<svg width="16" height="16" viewBox="0 0 16 16" fill="none" xmlns="http://www.w3.org/2000/svg">
<path d="M10 14.1538C10 14.6435 9.78929 15.1131 9.41421 15.4593C9.03914 15.8055 8.53043 16 8 16C7.46957 16 6.96086 15.8055 6.58579 15.4593C6.21071 15.1131 6 14.6435 6 14.1538C6 13.6642 6.21071 13.1946 6.58579 12.8484C6.96086 12.5022 7.46957 12.3077 8 12.3077C8.53043 12.3077 9.03914 12.5022 9.41421 12.8484C9.78929 13.1946 10 13.6642 10 14.1538ZM10 8C10 8.48963 9.78929 8.95921 9.41421 9.30543C9.03914 9.65165 8.53043 9.84615 8 9.84615C7.46957 9.84615 6.96086 9.65165 6.58579 9.30543C6.21071 8.95921 6 8.48963 6 8C6 7.51037 6.21071 7.04079 6.58579 6.69457C6.96086 6.34835 7.46957 6.15385 8 6.15385C8.53043 6.15385 9.03914 6.34835 9.41421 6.69457C9.78929 7.04079 10 7.51037 10 8ZM10 1.84615C10 2.33578 9.78929 2.80536 9.41421 3.15158C9.03914 3.4978 8.53043 3.69231 8 3.69231C7.46957 3.69231 6.96086 3.4978 6.58579 3.15158C6.21071 2.80536 6 2.33578 6 1.84615C6 1.35652 6.21071 0.886947 6.58579 0.540726C6.96086 0.194505 7.46957 -6.42368e-08 8 -8.74228e-08C8.53043 -1.10609e-07 9.03914 0.194505 9.41421 0.540726C9.78929 0.886947 10 1.35652 10 1.84615Z" fill="#FDC700"/>
</svg>
