<svg width="32" height="32" viewBox="0 0 32 32" fill="none" xmlns="http://www.w3.org/2000/svg">
<path d="M0 10C0 4.47715 4.47715 0 10 0H22C27.5228 0 32 4.47715 32 10V22C32 27.5228 27.5228 32 22 32H10C4.47715 32 0 27.5228 0 22V10Z" fill="#F3F4F6"/>
<mask id="mask0_27_2027" style="mask-type:alpha" maskUnits="userSpaceOnUse" x="7" y="7" width="18" height="18">
<rect x="7" y="7" width="18" height="18" fill="#D9D9D9"/>
</mask>
<g mask="url(#mask0_27_2027)">
<path d="M21.25 21.5688L20.1812 22.6188C20.0437 22.7563 19.8719 22.8281 19.6656 22.8344C19.4594 22.8406 19.2812 22.7688 19.1313 22.6188C18.9938 22.4813 18.925 22.3062 18.925 22.0938C18.925 21.8813 18.9938 21.7063 19.1313 21.5688L20.1812 20.5L19.1313 19.4312C18.9938 19.2937 18.9219 19.1219 18.9156 18.9156C18.9094 18.7094 18.9812 18.5312 19.1313 18.3813C19.2688 18.2438 19.4438 18.175 19.6562 18.175C19.8687 18.175 20.0437 18.2438 20.1812 18.3813L21.25 19.4312L22.3188 18.3813C22.4563 18.2438 22.6281 18.1719 22.8344 18.1656C23.0406 18.1594 23.2188 18.2312 23.3688 18.3813C23.5063 18.5188 23.575 18.6938 23.575 18.9062C23.575 19.1187 23.5063 19.2937 23.3688 19.4312L22.3188 20.5L23.3688 21.5688C23.5063 21.7063 23.5781 21.8781 23.5844 22.0844C23.5906 22.2906 23.5188 22.4688 23.3688 22.6188C23.2313 22.7563 23.0562 22.825 22.8438 22.825C22.6313 22.825 22.4563 22.7563 22.3188 22.6188L21.25 21.5688ZM11.5 23.5C10.875 23.5 10.3438 23.2812 9.90625 22.8438C9.46875 22.4062 9.25 21.875 9.25 21.25V20.5C9.25 20.0875 9.39688 19.7344 9.69063 19.4406C9.98438 19.1469 10.3375 19 10.75 19H11.5V10C11.5 9.5875 11.6469 9.23438 11.9406 8.94063C12.2344 8.64688 12.5875 8.5 13 8.5H21.25C21.6625 8.5 22.0156 8.64688 22.3094 8.94063C22.6031 9.23438 22.75 9.5875 22.75 10V16C22.75 16.2125 22.6781 16.3906 22.5344 16.5344C22.3906 16.6781 22.2125 16.75 22 16.75C21.7875 16.75 21.6094 16.6781 21.4656 16.5344C21.3219 16.3906 21.25 16.2125 21.25 16V10H13V19H16.75C16.9625 19 17.1406 19.0719 17.2844 19.2156C17.4281 19.3594 17.5 19.5375 17.5 19.75C17.5 19.9625 17.4281 20.1406 17.2844 20.2844C17.1406 20.4281 16.9625 20.5 16.75 20.5H10.75V21.25C10.75 21.4625 10.8219 21.6406 10.9656 21.7844C11.1094 21.9281 11.2875 22 11.5 22H16.75C16.9625 22 17.1406 22.0719 17.2844 22.2156C17.4281 22.3594 17.5 22.5375 17.5 22.75C17.5 22.9625 17.4281 23.1406 17.2844 23.2844C17.1406 23.4281 16.9625 23.5 16.75 23.5H11.5ZM14.5 13.75C14.2875 13.75 14.1094 13.6781 13.9656 13.5344C13.8219 13.3906 13.75 13.2125 13.75 13C13.75 12.7875 13.8219 12.6094 13.9656 12.4656C14.1094 12.3219 14.2875 12.25 14.5 12.25H19.75C19.9625 12.25 20.1406 12.3219 20.2844 12.4656C20.4281 12.6094 20.5 12.7875 20.5 13C20.5 13.2125 20.4281 13.3906 20.2844 13.5344C20.1406 13.6781 19.9625 13.75 19.75 13.75H14.5ZM14.5 16C14.2875 16 14.1094 15.9281 13.9656 15.7844C13.8219 15.6406 13.75 15.4625 13.75 15.25C13.75 15.0375 13.8219 14.8594 13.9656 14.7156C14.1094 14.5719 14.2875 14.5 14.5 14.5H19.75C19.9625 14.5 20.1406 14.5719 20.2844 14.7156C20.4281 14.8594 20.5 15.0375 20.5 15.25C20.5 15.4625 20.4281 15.6406 20.2844 15.7844C20.1406 15.9281 19.9625 16 19.75 16H14.5Z" fill="#555F6E"/>
</g>
</svg>
