<svg width="16" height="16" viewBox="0 0 16 16" fill="none" xmlns="http://www.w3.org/2000/svg">
<mask id="mask0_27_843" style="mask-type:alpha" maskUnits="userSpaceOnUse" x="0" y="0" width="16" height="16">
<rect width="16" height="16" fill="#D9D9D9"/>
</mask>
<g mask="url(#mask0_27_843)">
<path d="M4.87209 3.64157L3.34238 5.16952C3.24438 5.26729 3.12974 5.31552 2.99848 5.31421C2.86722 5.313 2.7505 5.26137 2.64832 5.15932C2.55295 5.05727 2.50356 4.94174 2.50015 4.81273C2.49686 4.68382 2.54625 4.56834 2.64832 4.46629L4.9493 2.1682C5.01098 2.1066 5.07601 2.06319 5.14439 2.03798C5.21276 2.01266 5.28662 2 5.36597 2C5.44532 2 5.51919 2.01266 5.58756 2.03798C5.65594 2.06319 5.72096 2.1066 5.78264 2.1682L8.08363 4.46629C8.17472 4.55738 8.22137 4.67012 8.22356 4.80451C8.22565 4.939 8.179 5.05727 8.08363 5.15932C7.98145 5.26137 7.86407 5.3124 7.73149 5.3124C7.59902 5.3124 7.4817 5.26137 7.37952 5.15932L5.85985 3.64157L5.85985 13.097C5.85985 13.237 5.81255 13.3542 5.71795 13.4485C5.62345 13.543 5.50613 13.5903 5.36597 13.5903C5.22582 13.5903 5.1085 13.543 5.014 13.4485C4.9194 13.3542 4.87209 13.237 4.87209 13.097V3.64157ZM10.1401 12.3584V2.90299C10.1401 2.76302 10.1874 2.64584 10.2821 2.55146C10.3765 2.45698 10.4939 2.40973 10.634 2.40973C10.7742 2.40973 10.8915 2.45698 10.986 2.55146C11.0806 2.64584 11.1279 2.76302 11.1279 2.90299V12.3584L12.6576 10.8305C12.7556 10.7327 12.8703 10.6845 13.0015 10.6858C13.1328 10.687 13.2495 10.7386 13.3517 10.8407C13.4471 10.9427 13.4964 11.0583 13.4998 11.1873C13.5031 11.3162 13.4538 11.4317 13.3517 11.5337L11.0507 13.8318C10.989 13.8934 10.924 13.9368 10.8556 13.962C10.7872 13.9873 10.7134 14 10.634 14C10.5547 14 10.4808 13.9873 10.4124 13.962C10.3441 13.9368 10.279 13.8934 10.2174 13.8318L7.91637 11.5337C7.82528 11.4426 7.77863 11.3299 7.77644 11.1955C7.77435 11.061 7.821 10.9427 7.91637 10.8407C8.01855 10.7386 8.13593 10.6876 8.26851 10.6876C8.40098 10.6876 8.5183 10.7386 8.62048 10.8407L10.1401 12.3584Z" fill="#1C1B1F"/>
<path d="M4.87209 3.64157L3.34238 5.16952C3.24438 5.26729 3.12974 5.31552 2.99848 5.31421C2.86722 5.313 2.7505 5.26137 2.64832 5.15932C2.55295 5.05727 2.50356 4.94174 2.50015 4.81273C2.49686 4.68382 2.54625 4.56834 2.64832 4.46629L4.9493 2.1682C5.01098 2.1066 5.07601 2.06319 5.14439 2.03798C5.21276 2.01266 5.28662 2 5.36597 2C5.44532 2 5.51919 2.01266 5.58756 2.03798C5.65594 2.06319 5.72096 2.1066 5.78264 2.1682L8.08363 4.46629C8.17472 4.55738 8.22137 4.67012 8.22356 4.80451C8.22565 4.939 8.179 5.05727 8.08363 5.15932C7.98145 5.26137 7.86407 5.3124 7.73149 5.3124C7.59902 5.3124 7.4817 5.26137 7.37952 5.15932L5.85985 3.64157L5.85985 13.097C5.85985 13.237 5.81255 13.3542 5.71795 13.4485C5.62345 13.543 5.50613 13.5903 5.36597 13.5903C5.22582 13.5903 5.1085 13.543 5.014 13.4485C4.9194 13.3542 4.87209 13.237 4.87209 13.097V3.64157ZM10.1401 12.3584V2.90299C10.1401 2.76302 10.1874 2.64584 10.2821 2.55146C10.3765 2.45698 10.4939 2.40973 10.634 2.40973C10.7742 2.40973 10.8915 2.45698 10.986 2.55146C11.0806 2.64584 11.1279 2.76302 11.1279 2.90299V12.3584L12.6576 10.8305C12.7556 10.7327 12.8703 10.6845 13.0015 10.6858C13.1328 10.687 13.2495 10.7386 13.3517 10.8407C13.4471 10.9427 13.4964 11.0583 13.4998 11.1873C13.5031 11.3162 13.4538 11.4317 13.3517 11.5337L11.0507 13.8318C10.989 13.8934 10.924 13.9368 10.8556 13.962C10.7872 13.9873 10.7134 14 10.634 14C10.5547 14 10.4808 13.9873 10.4124 13.962C10.3441 13.9368 10.279 13.8934 10.2174 13.8318L7.91637 11.5337C7.82528 11.4426 7.77863 11.3299 7.77644 11.1955C7.77435 11.061 7.821 10.9427 7.91637 10.8407C8.01855 10.7386 8.13593 10.6876 8.26851 10.6876C8.40098 10.6876 8.5183 10.7386 8.62048 10.8407L10.1401 12.3584Z" fill="#269898"/>
</g>
</svg>
