<svg width="20" height="20" viewBox="0 0 20 20" fill="none" xmlns="http://www.w3.org/2000/svg">
<mask id="mask0_27_1427" style="mask-type:alpha" maskUnits="userSpaceOnUse" x="0" y="0" width="20" height="20">
<rect width="20" height="20" fill="#D9D9D9"/>
</mask>
<g mask="url(#mask0_27_1427)">
<path d="M4.21495 17.0833C3.79398 17.0833 3.43766 16.9375 3.146 16.6458C2.85433 16.3542 2.7085 15.9978 2.7085 15.5769V4.42312C2.7085 4.00215 2.85433 3.64583 3.146 3.35417C3.43766 3.0625 3.79398 2.91667 4.21495 2.91667H11.8431V4.16667H4.21495C4.14009 4.16667 4.07863 4.19069 4.03058 4.23875C3.98252 4.28681 3.9585 4.34826 3.9585 4.42312V15.5769C3.9585 15.6517 3.98252 15.7132 4.03058 15.7612C4.07863 15.8093 4.14009 15.8333 4.21495 15.8333H15.3687C15.4436 15.8333 15.505 15.8093 15.5531 15.7612C15.6011 15.7132 15.6252 15.6517 15.6252 15.5769V7.94875H16.8752V15.5769C16.8752 15.9978 16.7293 16.3542 16.4377 16.6458C16.146 16.9375 15.7897 17.0833 15.3687 17.0833H4.21495ZM5.92975 13.9583H7.17954V8.54167H5.92975V13.9583ZM9.16683 13.9583H10.4168V6.04167H9.16683V13.9583ZM12.4039 13.9583H13.6539V11.0417H12.4039V13.9583ZM14.3752 7.08333V5.41667H12.7085V4.16667H14.3752V2.5H15.6252V4.16667H17.2918V5.41667H15.6252V7.08333H14.3752Z" fill="#5D5D5D"/>
<path d="M4.21495 17.0833C3.79398 17.0833 3.43766 16.9375 3.146 16.6458C2.85433 16.3542 2.7085 15.9978 2.7085 15.5769V4.42312C2.7085 4.00215 2.85433 3.64583 3.146 3.35417C3.43766 3.0625 3.79398 2.91667 4.21495 2.91667H11.8431V4.16667H4.21495C4.14009 4.16667 4.07863 4.19069 4.03058 4.23875C3.98252 4.28681 3.9585 4.34826 3.9585 4.42312V15.5769C3.9585 15.6517 3.98252 15.7132 4.03058 15.7612C4.07863 15.8093 4.14009 15.8333 4.21495 15.8333H15.3687C15.4436 15.8333 15.505 15.8093 15.5531 15.7612C15.6011 15.7132 15.6252 15.6517 15.6252 15.5769V7.94875H16.8752V15.5769C16.8752 15.9978 16.7293 16.3542 16.4377 16.6458C16.146 16.9375 15.7897 17.0833 15.3687 17.0833H4.21495ZM5.92975 13.9583H7.17954V8.54167H5.92975V13.9583ZM9.16683 13.9583H10.4168V6.04167H9.16683V13.9583ZM12.4039 13.9583H13.6539V11.0417H12.4039V13.9583ZM14.3752 7.08333V5.41667H12.7085V4.16667H14.3752V2.5H15.6252V4.16667H17.2918V5.41667H15.6252V7.08333H14.3752Z" fill="white"/>
</g>
</svg>
