<svg width="20" height="20" viewBox="0 0 20 20" fill="none" xmlns="http://www.w3.org/2000/svg">
<mask id="mask0_24_2941" style="mask-type:alpha" maskUnits="userSpaceOnUse" x="0" y="0" width="20" height="20">
<rect width="20" height="20" fill="#D9D9D9"/>
</mask>
<g mask="url(#mask0_24_2941)">
<path d="M14.1183 11.9231C13.5991 11.9231 13.1568 11.7404 12.7914 11.3749C12.426 11.0095 12.2433 10.5672 12.2433 10.0481C12.2433 9.52877 12.426 9.08641 12.7914 8.72099C13.1568 8.35571 13.5991 8.17307 14.1183 8.17307C14.6376 8.17307 15.0799 8.35571 15.4451 8.72099C15.8106 9.08641 15.9933 9.52877 15.9933 10.0481C15.9933 10.5672 15.8106 11.0095 15.4451 11.3749C15.0799 11.7404 14.6376 11.9231 14.1183 11.9231ZM10.1599 15.3364V15.1314C10.1599 14.8354 10.2356 14.5637 10.387 14.3162C10.5384 14.0687 10.7533 13.8906 11.0318 13.782C11.5211 13.579 12.0251 13.4267 12.5439 13.3252C13.0625 13.2238 13.5873 13.1731 14.1183 13.1731C14.6492 13.1731 15.1741 13.2238 15.6929 13.3252C16.2115 13.4267 16.7155 13.579 17.2049 13.782C17.4834 13.8906 17.6983 14.0687 17.8495 14.3162C18.0009 14.5637 18.0766 14.8354 18.0766 15.1314V15.3364C18.0766 15.5499 18.0044 15.7288 17.8601 15.8731C17.7157 16.0175 17.5368 16.0897 17.3235 16.0897H10.9133C10.6998 16.0897 10.5209 16.0175 10.3766 15.8731C10.2322 15.7288 10.1599 15.5499 10.1599 15.3364ZM8.17285 9.74349C7.37077 9.74349 6.6841 9.45793 6.11285 8.88682C5.54174 8.31557 5.25619 7.62891 5.25619 6.82682C5.25619 6.02474 5.54174 5.33814 6.11285 4.76703C6.6841 4.19578 7.37077 3.91016 8.17285 3.91016C8.97494 3.91016 9.66153 4.19578 10.2326 4.76703C10.8039 5.33814 11.0895 6.02474 11.0895 6.82682C11.0895 7.62891 10.8039 8.31557 10.2326 8.88682C9.66153 9.45793 8.97494 9.74349 8.17285 9.74349ZM1.92285 14.2362C1.92285 13.8201 2.03153 13.4377 2.24889 13.0889C2.46639 12.74 2.76473 12.4774 3.14389 12.3012C3.92917 11.9059 4.74424 11.6052 5.5891 11.3989C6.43396 11.1928 7.29521 11.0897 8.17285 11.0897C8.5841 11.0897 8.99542 11.1194 9.40681 11.1787C9.81806 11.238 10.2294 11.3098 10.6408 11.3941C10.4634 11.5741 10.286 11.7542 10.1087 11.9343L9.5766 12.4743C9.34271 12.4182 9.10875 12.3818 8.87473 12.3649C8.6407 12.3481 8.40674 12.3397 8.17285 12.3397C7.39396 12.3397 6.62848 12.4289 5.87639 12.6072C5.12417 12.7857 4.40459 13.0555 3.71764 13.4166C3.55737 13.502 3.42646 13.6139 3.32494 13.7522C3.22355 13.8907 3.17285 14.0523 3.17285 14.237V14.8397H8.17285V15.3237C8.17285 15.4856 8.20125 15.632 8.25806 15.7627C8.31487 15.8935 8.39438 16.0025 8.4966 16.0897H3.18889C2.83737 16.0897 2.53848 15.9666 2.29223 15.7204C2.04598 15.474 1.92285 15.1751 1.92285 14.8237V14.2362ZM8.17285 8.49349C8.63119 8.49349 9.02355 8.33029 9.34994 8.00391C9.67632 7.67752 9.83952 7.28516 9.83952 6.82682C9.83952 6.36849 9.67632 5.97613 9.34994 5.64974C9.02355 5.32335 8.63119 5.16016 8.17285 5.16016C7.71452 5.16016 7.32216 5.32335 6.99577 5.64974C6.66938 5.97613 6.50619 6.36849 6.50619 6.82682C6.50619 7.28516 6.66938 7.67752 6.99577 8.00391C7.32216 8.33029 7.71452 8.49349 8.17285 8.49349Z" fill="#5D5D5D"/>
<path d="M14.1183 11.9231C13.5991 11.9231 13.1568 11.7404 12.7914 11.3749C12.426 11.0095 12.2433 10.5672 12.2433 10.0481C12.2433 9.52877 12.426 9.08641 12.7914 8.72099C13.1568 8.35571 13.5991 8.17307 14.1183 8.17307C14.6376 8.17307 15.0799 8.35571 15.4451 8.72099C15.8106 9.08641 15.9933 9.52877 15.9933 10.0481C15.9933 10.5672 15.8106 11.0095 15.4451 11.3749C15.0799 11.7404 14.6376 11.9231 14.1183 11.9231ZM10.1599 15.3364V15.1314C10.1599 14.8354 10.2356 14.5637 10.387 14.3162C10.5384 14.0687 10.7533 13.8906 11.0318 13.782C11.5211 13.579 12.0251 13.4267 12.5439 13.3252C13.0625 13.2238 13.5873 13.1731 14.1183 13.1731C14.6492 13.1731 15.1741 13.2238 15.6929 13.3252C16.2115 13.4267 16.7155 13.579 17.2049 13.782C17.4834 13.8906 17.6983 14.0687 17.8495 14.3162C18.0009 14.5637 18.0766 14.8354 18.0766 15.1314V15.3364C18.0766 15.5499 18.0044 15.7288 17.8601 15.8731C17.7157 16.0175 17.5368 16.0897 17.3235 16.0897H10.9133C10.6998 16.0897 10.5209 16.0175 10.3766 15.8731C10.2322 15.7288 10.1599 15.5499 10.1599 15.3364ZM8.17285 9.74349C7.37077 9.74349 6.6841 9.45793 6.11285 8.88682C5.54174 8.31557 5.25619 7.62891 5.25619 6.82682C5.25619 6.02474 5.54174 5.33814 6.11285 4.76703C6.6841 4.19578 7.37077 3.91016 8.17285 3.91016C8.97494 3.91016 9.66153 4.19578 10.2326 4.76703C10.8039 5.33814 11.0895 6.02474 11.0895 6.82682C11.0895 7.62891 10.8039 8.31557 10.2326 8.88682C9.66153 9.45793 8.97494 9.74349 8.17285 9.74349ZM1.92285 14.2362C1.92285 13.8201 2.03153 13.4377 2.24889 13.0889C2.46639 12.74 2.76473 12.4774 3.14389 12.3012C3.92917 11.9059 4.74424 11.6052 5.5891 11.3989C6.43396 11.1928 7.29521 11.0897 8.17285 11.0897C8.5841 11.0897 8.99542 11.1194 9.40681 11.1787C9.81806 11.238 10.2294 11.3098 10.6408 11.3941C10.4634 11.5741 10.286 11.7542 10.1087 11.9343L9.5766 12.4743C9.34271 12.4182 9.10875 12.3818 8.87473 12.3649C8.6407 12.3481 8.40674 12.3397 8.17285 12.3397C7.39396 12.3397 6.62848 12.4289 5.87639 12.6072C5.12417 12.7857 4.40459 13.0555 3.71764 13.4166C3.55737 13.502 3.42646 13.6139 3.32494 13.7522C3.22355 13.8907 3.17285 14.0523 3.17285 14.237V14.8397H8.17285V15.3237C8.17285 15.4856 8.20125 15.632 8.25806 15.7627C8.31487 15.8935 8.39438 16.0025 8.4966 16.0897H3.18889C2.83737 16.0897 2.53848 15.9666 2.29223 15.7204C2.04598 15.474 1.92285 15.1751 1.92285 14.8237V14.2362ZM8.17285 8.49349C8.63119 8.49349 9.02355 8.33029 9.34994 8.00391C9.67632 7.67752 9.83952 7.28516 9.83952 6.82682C9.83952 6.36849 9.67632 5.97613 9.34994 5.64974C9.02355 5.32335 8.63119 5.16016 8.17285 5.16016C7.71452 5.16016 7.32216 5.32335 6.99577 5.64974C6.66938 5.97613 6.50619 6.36849 6.50619 6.82682C6.50619 7.28516 6.66938 7.67752 6.99577 8.00391C7.32216 8.33029 7.71452 8.49349 8.17285 8.49349Z" fill="white"/>
</g>
</svg>
