<svg width="20" height="20" viewBox="0 0 20 20" fill="none" xmlns="http://www.w3.org/2000/svg">
<mask id="mask0_24_2895" style="mask-type:alpha" maskUnits="userSpaceOnUse" x="0" y="0" width="20" height="20">
<rect width="20" height="20" fill="#D9D9D9"/>
</mask>
<g mask="url(#mask0_24_2895)">
<path d="M11.4582 11.458C11.6355 11.458 11.784 11.3981 11.9036 11.2784C12.0233 11.1588 12.0832 11.0104 12.0832 10.833V8.95801H13.9582C14.1355 8.95801 14.284 8.89815 14.4036 8.77842C14.5233 8.65884 14.5832 8.51037 14.5832 8.33301C14.5832 8.15565 14.5233 8.00717 14.4036 7.88759C14.284 7.76787 14.1355 7.70801 13.9582 7.70801H12.0832V5.83301C12.0832 5.65565 12.0233 5.50717 11.9036 5.38759C11.784 5.26787 11.6355 5.20801 11.4582 5.20801C11.2808 5.20801 11.1323 5.26787 11.0128 5.38759C10.893 5.50717 10.8332 5.65565 10.8332 5.83301V7.70801H8.95817C8.78081 7.70801 8.63234 7.76787 8.51275 7.88759C8.39303 8.00717 8.33317 8.15565 8.33317 8.33301C8.33317 8.51037 8.39303 8.65884 8.51275 8.77842C8.63234 8.89815 8.78081 8.95801 8.95817 8.95801H10.8332V10.833C10.8332 11.0104 10.893 11.1588 11.0128 11.2784C11.1323 11.3981 11.2808 11.458 11.4582 11.458ZM6.71463 14.583C6.29366 14.583 5.93734 14.4372 5.64567 14.1455C5.354 13.8538 5.20817 13.4975 5.20817 13.0766V3.58947C5.20817 3.16849 5.354 2.81217 5.64567 2.52051C5.93734 2.22884 6.29366 2.08301 6.71463 2.08301H16.2017C16.6227 2.08301 16.979 2.22884 17.2707 2.52051C17.5623 2.81217 17.7082 3.16849 17.7082 3.58947V13.0766C17.7082 13.4975 17.5623 13.8538 17.2707 14.1455C16.979 14.4372 16.6227 14.583 16.2017 14.583H6.71463ZM6.71463 13.333H16.2017C16.2659 13.333 16.3246 13.3063 16.378 13.2528C16.4314 13.1995 16.4582 13.1407 16.4582 13.0766V3.58947C16.4582 3.5253 16.4314 3.46655 16.378 3.41322C16.3246 3.35974 16.2659 3.33301 16.2017 3.33301H6.71463C6.65046 3.33301 6.59171 3.35974 6.53838 3.41322C6.48491 3.46655 6.45817 3.5253 6.45817 3.58947V13.0766C6.45817 13.1407 6.48491 13.1995 6.53838 13.2528C6.59171 13.3063 6.65046 13.333 6.71463 13.333ZM3.79796 17.4997C3.37699 17.4997 3.02067 17.3538 2.729 17.0622C2.43734 16.7705 2.2915 16.4142 2.2915 15.9932V5.88113C2.2915 5.70377 2.35137 5.55523 2.47109 5.43551C2.59067 5.31592 2.73914 5.25613 2.9165 5.25613C3.09387 5.25613 3.24241 5.31592 3.36213 5.43551C3.48171 5.55523 3.5415 5.70377 3.5415 5.88113V15.9932C3.5415 16.0574 3.56824 16.1161 3.62171 16.1695C3.67505 16.2229 3.7338 16.2497 3.79796 16.2497H13.91C14.0874 16.2497 14.2359 16.3095 14.3557 16.4291C14.4753 16.5488 14.535 16.6973 14.535 16.8747C14.535 17.052 14.4753 17.2005 14.3557 17.3201C14.2359 17.4398 14.0874 17.4997 13.91 17.4997H3.79796Z" fill="white"/>
</g>
</svg>
