<svg width="16" height="16" viewBox="0 0 16 16" fill="none" xmlns="http://www.w3.org/2000/svg">
<path fill-rule="evenodd" clip-rule="evenodd" d="M4.83331 2.51544C6.65698 1.46255 8.78689 1.42033 10.5727 2.2126C10.9093 2.36191 11.0611 2.75578 10.9118 3.09234C10.7624 3.42889 10.3686 3.58069 10.032 3.43138C8.61899 2.8045 6.93896 2.83935 5.49998 3.67015C3.3959 4.88493 2.50878 7.39807 3.26631 9.6133L3.32789 9.38349C3.42318 9.02785 3.78874 8.81679 4.14438 8.91209C4.50003 9.00738 4.71108 9.37294 4.61579 9.72858L4.12776 11.55C4.08199 11.7207 3.97026 11.8664 3.81714 11.9548C3.66402 12.0432 3.48205 12.0671 3.31126 12.0214L1.48989 11.5333C1.13425 11.438 0.923192 11.0725 1.01849 10.7168C1.11378 10.3612 1.47934 10.1501 1.83498 10.2454L2.10496 10.3178C0.972529 7.44769 2.08089 4.10455 4.83331 2.51544ZM11.8727 4.45016C11.968 4.09451 12.3335 3.88346 12.6892 3.97875L14.5105 4.46679C14.8662 4.56208 15.0772 4.92764 14.9819 5.28328C14.8866 5.63893 14.5211 5.84998 14.1654 5.75469L13.8951 5.68226C15.0279 8.55243 13.9195 11.8958 11.167 13.485C9.34329 14.5379 7.21338 14.5801 5.42755 13.7879C5.091 13.6386 4.9392 13.2447 5.08852 12.9081C5.23783 12.5716 5.6317 12.4198 5.96826 12.5691C7.38128 13.196 9.06131 13.1611 10.5003 12.3303C12.6043 11.1155 13.4915 8.60247 12.734 6.38726L12.6725 6.61662C12.5772 6.97226 12.2117 7.18332 11.856 7.08802C11.5004 6.99273 11.2893 6.62717 11.3846 6.27153L11.8727 4.45016Z" fill="#269898"/>
</svg>
