<svg width="20" height="20" viewBox="0 0 20 20" fill="none" xmlns="http://www.w3.org/2000/svg">
<mask id="mask0_24_2902" style="mask-type:alpha" maskUnits="userSpaceOnUse" x="0" y="0" width="20" height="20">
<rect width="20" height="20" fill="#D9D9D9"/>
</mask>
<g mask="url(#mask0_24_2902)">
<path d="M3.32561 16.0897C2.97408 16.0897 2.6752 15.9666 2.42895 15.7204C2.1827 15.474 2.05957 15.1751 2.05957 14.8237V14.237C2.05957 13.7948 2.17096 13.4084 2.39374 13.0777C2.61638 12.747 2.912 12.4881 3.28061 12.3012C3.98895 11.9401 4.73679 11.6479 5.52415 11.4247C6.31165 11.2014 7.24013 11.0897 8.30957 11.0897C8.43665 11.0897 8.57367 11.0919 8.72061 11.0962C8.86742 11.1004 9.00443 11.1121 9.13165 11.1314C9.29513 11.1538 9.43242 11.2339 9.54353 11.3718C9.65464 11.5096 9.69895 11.6611 9.67645 11.8264C9.65408 11.971 9.58943 12.0967 9.48249 12.2035C9.37568 12.3103 9.23096 12.3611 9.04832 12.3558C8.95429 12.3504 8.83915 12.3463 8.7029 12.3437C8.56665 12.3411 8.43554 12.3397 8.30957 12.3397C7.32346 12.3397 6.45936 12.4497 5.71728 12.6697C4.97533 12.8899 4.35436 13.1388 3.85436 13.4166C3.6652 13.5181 3.52714 13.6368 3.4402 13.7724C3.35311 13.9081 3.30957 14.063 3.30957 14.237V14.8397H9.04665C9.22374 14.8397 9.37221 14.8997 9.49207 15.0195C9.61179 15.1393 9.67165 15.2877 9.67165 15.4649C9.67165 15.6422 9.61179 15.7906 9.49207 15.9102C9.37221 16.0299 9.22374 16.0897 9.04665 16.0897H3.32561ZM12.8544 14.9552L16.6235 11.1858C16.7389 11.0705 16.884 11.0115 17.0587 11.0087C17.2333 11.0061 17.381 11.0651 17.5019 11.1858C17.6226 11.3066 17.6829 11.453 17.6829 11.6249C17.6829 11.7969 17.6226 11.9433 17.5019 12.0641L13.3817 16.1843C13.231 16.3349 13.0552 16.4102 12.8544 16.4102C12.6535 16.4102 12.4778 16.3349 12.3271 16.1843L10.7069 14.5641C10.5916 14.4487 10.5326 14.3036 10.5298 14.1289C10.5271 13.9543 10.5862 13.8066 10.7069 13.6858C10.8277 13.5651 10.9741 13.5047 11.146 13.5047C11.318 13.5047 11.4644 13.5651 11.5852 13.6858L12.8544 14.9552ZM8.30957 9.74349C7.50749 9.74349 6.82082 9.45793 6.24957 8.88682C5.67846 8.31557 5.3929 7.62891 5.3929 6.82682C5.3929 6.02474 5.67846 5.33814 6.24957 4.76703C6.82082 4.19578 7.50749 3.91016 8.30957 3.91016C9.11165 3.91016 9.79825 4.19578 10.3694 4.76703C10.9405 5.33814 11.226 6.02474 11.226 6.82682C11.226 7.62891 10.9405 8.31557 10.3694 8.88682C9.79825 9.45793 9.11165 9.74349 8.30957 9.74349ZM8.30957 8.49349C8.7679 8.49349 9.16026 8.33029 9.48665 8.00391C9.81304 7.67752 9.97624 7.28516 9.97624 6.82682C9.97624 6.36849 9.81304 5.97613 9.48665 5.64974C9.16026 5.32335 8.7679 5.16016 8.30957 5.16016C7.85124 5.16016 7.45888 5.32335 7.13249 5.64974C6.8061 5.97613 6.6429 6.36849 6.6429 6.82682C6.6429 7.28516 6.8061 7.67752 7.13249 8.00391C7.45888 8.33029 7.85124 8.49349 8.30957 8.49349Z" fill="#5D5D5D"/>
</g>
</svg>
