<svg width="56" height="56" viewBox="0 0 56 56" fill="none" xmlns="http://www.w3.org/2000/svg">
<path d="M0 10C0 4.47715 4.47715 0 10 0H46C51.5228 0 56 4.47715 56 10V46C56 51.5228 51.5228 56 46 56H10C4.47715 56 0 51.5228 0 46V10Z" fill="#F0FDFA"/>
<mask id="mask0_64_847" style="mask-type:alpha" maskUnits="userSpaceOnUse" x="16" y="16" width="24" height="24">
<rect x="16" y="16" width="24" height="24" fill="#D9D9D9"/>
</mask>
<g mask="url(#mask0_64_847)">
<path d="M31.5 33.125L36.45 28.175C36.6333 27.9917 36.8667 27.9 37.15 27.9C37.4333 27.9 37.6667 27.9917 37.85 28.175C38.0333 28.3583 38.125 28.5917 38.125 28.875C38.125 29.1583 38.0333 29.3917 37.85 29.575L32.2 35.225C32 35.425 31.7667 35.525 31.5 35.525C31.2333 35.525 31 35.425 30.8 35.225L27.95 32.375C27.7667 32.1917 27.675 31.9583 27.675 31.675C27.675 31.3917 27.7667 31.1583 27.95 30.975C28.1333 30.7917 28.3667 30.7 28.65 30.7C28.9333 30.7 29.1667 30.7917 29.35 30.975L31.5 33.125ZM21 37C20.45 37 19.9792 36.8042 19.5875 36.4125C19.1958 36.0208 19 35.55 19 35V21C19 20.45 19.1958 19.9792 19.5875 19.5875C19.9792 19.1958 20.45 19 21 19H25.175C25.3583 18.4167 25.7167 17.9375 26.25 17.5625C26.7833 17.1875 27.3667 17 28 17C28.6667 17 29.2625 17.1875 29.7875 17.5625C30.3125 17.9375 30.6667 18.4167 30.85 19H35C35.55 19 36.0208 19.1958 36.4125 19.5875C36.8042 19.9792 37 20.45 37 21V25C37 25.2833 36.9042 25.5208 36.7125 25.7125C36.5208 25.9042 36.2833 26 36 26C35.7167 26 35.4792 25.9042 35.2875 25.7125C35.0958 25.5208 35 25.2833 35 25V21H33V23C33 23.2833 32.9042 23.5208 32.7125 23.7125C32.5208 23.9042 32.2833 24 32 24H24C23.7167 24 23.4792 23.9042 23.2875 23.7125C23.0958 23.5208 23 23.2833 23 23V21H21V35H26C26.2833 35 26.5208 35.0958 26.7125 35.2875C26.9042 35.4792 27 35.7167 27 36C27 36.2833 26.9042 36.5208 26.7125 36.7125C26.5208 36.9042 26.2833 37 26 37H21ZM28 21C28.2833 21 28.5208 20.9042 28.7125 20.7125C28.9042 20.5208 29 20.2833 29 20C29 19.7167 28.9042 19.4792 28.7125 19.2875C28.5208 19.0958 28.2833 19 28 19C27.7167 19 27.4792 19.0958 27.2875 19.2875C27.0958 19.4792 27 19.7167 27 20C27 20.2833 27.0958 20.5208 27.2875 20.7125C27.4792 20.9042 27.7167 21 28 21Z" fill="#009689"/>
</g>
</svg>
