<svg width="32" height="32" viewBox="0 0 32 32" fill="none" xmlns="http://www.w3.org/2000/svg">
<path d="M0 10C0 4.47715 4.47715 0 10 0H22C27.5228 0 32 4.47715 32 10V22C32 27.5228 27.5228 32 22 32H10C4.47715 32 0 27.5228 0 22V10Z" fill="#F3F4F6"/>
<path fill-rule="evenodd" clip-rule="evenodd" d="M16.6667 10.0136C16.5429 10.0023 16.3594 10.0004 16.0079 10.0004H13.8667C13.2956 10.0004 12.9074 10.0009 12.6074 10.0254C12.3151 10.0493 12.1656 10.0926 12.0613 10.1457C11.8105 10.2735 11.6065 10.4775 11.4787 10.7284C11.4255 10.8326 11.3822 10.9821 11.3584 11.2744C11.3339 11.5745 11.3333 11.9626 11.3333 12.5337V19.467C11.3333 20.0381 11.3339 20.4263 11.3584 20.7263C11.3822 21.0186 11.4255 21.1681 11.4787 21.2724C11.6065 21.5232 11.8105 21.7272 12.0613 21.855C12.1656 21.9082 12.3151 21.9515 12.6074 21.9753C12.9074 21.9998 13.2956 22.0004 13.8667 22.0004H18.1333C18.7044 22.0004 19.0926 21.9998 19.3926 21.9753C19.6849 21.9515 19.8344 21.9082 19.9387 21.855C20.1895 21.7272 20.3935 21.5232 20.5213 21.2724C20.5745 21.1681 20.6178 21.0186 20.6416 20.7263C20.6661 20.4263 20.6667 20.0381 20.6667 19.467V14.6592C20.6667 14.3077 20.6647 14.1242 20.6534 14.0004L18.3787 14.0004C18.2105 14.0004 18.0466 14.0005 17.9078 13.9891C17.7555 13.9767 17.5756 13.9473 17.3947 13.8551C17.1438 13.7273 16.9398 13.5233 16.812 13.2724C16.7198 13.0915 16.6904 12.9116 16.678 12.7592C16.6666 12.6205 16.6666 12.4566 16.6667 12.2883L16.6667 10.0136ZM17.5957 8.90034C17.4451 8.83284 17.2884 8.77935 17.1274 8.74071C16.819 8.66666 16.4991 8.66681 16.0758 8.66701C16.0534 8.66702 16.0308 8.66703 16.0079 8.66703L13.8391 8.66703C13.3025 8.66703 12.8596 8.66702 12.4988 8.6965C12.1241 8.72711 11.7796 8.79282 11.456 8.95768C10.9543 9.21335 10.5463 9.62129 10.2906 10.1231C10.1258 10.4466 10.0601 10.7911 10.0295 11.1658C9.99998 11.5266 9.99999 11.9695 10 12.5062V19.4946C9.99999 20.0312 9.99998 20.4741 10.0295 20.8349C10.0601 21.2097 10.1258 21.5541 10.2906 21.8777C10.5463 22.3794 10.9543 22.7874 11.456 23.0431C11.7796 23.2079 12.1241 23.2736 12.4988 23.3042C12.8596 23.3337 13.3025 23.3337 13.8391 23.3337H18.1609C18.6975 23.3337 19.1404 23.3337 19.5012 23.3042C19.8759 23.2736 20.2204 23.2079 20.544 23.0431C21.0457 22.7874 21.4537 22.3794 21.7093 21.8777C21.8742 21.5541 21.9399 21.2097 21.9705 20.8349C22 20.4741 22 20.0312 22 19.4946V14.6592C22 14.6362 22 14.6136 22 14.5913C22.0002 14.1679 22.0004 13.8481 21.9263 13.5396C21.8878 13.3791 21.8345 13.2228 21.7673 13.0726C21.7631 13.0628 21.7587 13.0532 21.7541 13.0436C21.7105 12.9494 21.6615 12.8576 21.607 12.7688C21.4413 12.4983 21.215 12.2722 20.9155 11.973C20.8997 11.9573 20.8837 11.9413 20.8675 11.925L18.742 9.79955C18.7258 9.78334 18.7098 9.76732 18.694 9.75151C18.3948 9.45203 18.1687 9.22575 17.8982 9.05999C17.8091 9.00536 17.7169 8.9561 17.6223 8.91242C17.6135 8.90821 17.6047 8.90418 17.5957 8.90034ZM18 10.9432V12.2671C18 12.4648 18.0005 12.5729 18.0069 12.6507C18.0071 12.6538 18.0074 12.6567 18.0076 12.6594C18.0104 12.6597 18.0133 12.66 18.0164 12.6602C18.0941 12.6666 18.2023 12.6671 18.4 12.6671H19.7239L18 10.9432ZM12.6667 16.667C12.6667 16.2988 12.9651 16.0004 13.3333 16.0004H18.6667C19.0349 16.0004 19.3333 16.2988 19.3333 16.667C19.3333 17.0352 19.0349 17.3337 18.6667 17.3337H13.3333C12.9651 17.3337 12.6667 17.0352 12.6667 16.667ZM12.6667 19.3337C12.6667 18.9655 12.9651 18.667 13.3333 18.667H17.3333C17.7015 18.667 18 18.9655 18 19.3337C18 19.7019 17.7015 20.0004 17.3333 20.0004H13.3333C12.9651 20.0004 12.6667 19.7019 12.6667 19.3337Z" fill="#4A5565"/>
</svg>
