<svg width="32" height="32" viewBox="0 0 32 32" fill="none" xmlns="http://www.w3.org/2000/svg">
<path d="M0 10C0 4.47715 4.47715 0 10 0H22C27.5228 0 32 4.47715 32 10V22C32 27.5228 27.5228 32 22 32H10C4.47715 32 0 27.5228 0 22V10Z" fill="#F3F4F6"/>
<mask id="mask0_27_2005" style="mask-type:alpha" maskUnits="userSpaceOnUse" x="7" y="7" width="18" height="18">
<rect x="7" y="7" width="18" height="18" fill="#555F6E"/>
</mask>
<g mask="url(#mask0_27_2005)">
<path d="M18.625 19.8438L22.3375 16.1313C22.475 15.9938 22.65 15.925 22.8625 15.925C23.075 15.925 23.25 15.9938 23.3875 16.1313C23.525 16.2688 23.5938 16.4438 23.5938 16.6562C23.5938 16.8687 23.525 17.0437 23.3875 17.1812L19.15 21.4188C19 21.5688 18.825 21.6437 18.625 21.6437C18.425 21.6437 18.25 21.5688 18.1 21.4188L15.9625 19.2812C15.825 19.1438 15.7563 18.9688 15.7563 18.7563C15.7563 18.5437 15.825 18.3688 15.9625 18.2313C16.1 18.0938 16.275 18.025 16.4875 18.025C16.7 18.025 16.875 18.0938 17.0125 18.2313L18.625 19.8438ZM10.75 22.75C10.3375 22.75 9.98438 22.6031 9.69063 22.3094C9.39688 22.0156 9.25 21.6625 9.25 21.25V10.75C9.25 10.3375 9.39688 9.98438 9.69063 9.69063C9.98438 9.39688 10.3375 9.25 10.75 9.25H13.8813C14.0188 8.8125 14.2875 8.45312 14.6875 8.17188C15.0875 7.89062 15.525 7.75 16 7.75C16.5 7.75 16.9469 7.89062 17.3406 8.17188C17.7344 8.45312 18 8.8125 18.1375 9.25H21.25C21.6625 9.25 22.0156 9.39688 22.3094 9.69063C22.6031 9.98438 22.75 10.3375 22.75 10.75V13.75C22.75 13.9625 22.6781 14.1406 22.5344 14.2844C22.3906 14.4281 22.2125 14.5 22 14.5C21.7875 14.5 21.6094 14.4281 21.4656 14.2844C21.3219 14.1406 21.25 13.9625 21.25 13.75V10.75H19.75V12.25C19.75 12.4625 19.6781 12.6406 19.5344 12.7844C19.3906 12.9281 19.2125 13 19 13H13C12.7875 13 12.6094 12.9281 12.4656 12.7844C12.3219 12.6406 12.25 12.4625 12.25 12.25V10.75H10.75V21.25H14.5C14.7125 21.25 14.8906 21.3219 15.0344 21.4656C15.1781 21.6094 15.25 21.7875 15.25 22C15.25 22.2125 15.1781 22.3906 15.0344 22.5344C14.8906 22.6781 14.7125 22.75 14.5 22.75H10.75ZM16 10.75C16.2125 10.75 16.3906 10.6781 16.5344 10.5344C16.6781 10.3906 16.75 10.2125 16.75 10C16.75 9.7875 16.6781 9.60938 16.5344 9.46563C16.3906 9.32188 16.2125 9.25 16 9.25C15.7875 9.25 15.6094 9.32188 15.4656 9.46563C15.3219 9.60938 15.25 9.7875 15.25 10C15.25 10.2125 15.3219 10.3906 15.4656 10.5344C15.6094 10.6781 15.7875 10.75 16 10.75Z" fill="#555F6E"/>
</g>
</svg>
