<svg width="56" height="56" viewBox="0 0 56 56" fill="none" xmlns="http://www.w3.org/2000/svg">
<path d="M0 10C0 4.47715 4.47715 0 10 0H46C51.5228 0 56 4.47715 56 10V46C56 51.5228 51.5228 56 46 56H10C4.47715 56 0 51.5228 0 46V10Z" fill="#F0FDFA"/>
<mask id="mask0_64_867" style="mask-type:alpha" maskUnits="userSpaceOnUse" x="16" y="16" width="24" height="24">
<rect x="16" y="16" width="24" height="24" fill="#D9D9D9"/>
</mask>
<g mask="url(#mask0_64_867)">
<path d="M35 35.425L33.575 36.825C33.3917 37.0083 33.1625 37.1042 32.8875 37.1125C32.6125 37.1208 32.375 37.025 32.175 36.825C31.9917 36.6417 31.9 36.4083 31.9 36.125C31.9 35.8417 31.9917 35.6083 32.175 35.425L33.575 34L32.175 32.575C31.9917 32.3917 31.8958 32.1625 31.8875 31.8875C31.8792 31.6125 31.975 31.375 32.175 31.175C32.3583 30.9917 32.5917 30.9 32.875 30.9C33.1583 30.9 33.3917 30.9917 33.575 31.175L35 32.575L36.425 31.175C36.6083 30.9917 36.8375 30.8958 37.1125 30.8875C37.3875 30.8792 37.625 30.975 37.825 31.175C38.0083 31.3583 38.1 31.5917 38.1 31.875C38.1 32.1583 38.0083 32.3917 37.825 32.575L36.425 34L37.825 35.425C38.0083 35.6083 38.1042 35.8375 38.1125 36.1125C38.1208 36.3875 38.025 36.625 37.825 36.825C37.6417 37.0083 37.4083 37.1 37.125 37.1C36.8417 37.1 36.6083 37.0083 36.425 36.825L35 35.425ZM22 38C21.1667 38 20.4583 37.7083 19.875 37.125C19.2917 36.5417 19 35.8333 19 35V34C19 33.45 19.1958 32.9792 19.5875 32.5875C19.9792 32.1958 20.45 32 21 32H22V20C22 19.45 22.1958 18.9792 22.5875 18.5875C22.9792 18.1958 23.45 18 24 18H35C35.55 18 36.0208 18.1958 36.4125 18.5875C36.8042 18.9792 37 19.45 37 20V28C37 28.2833 36.9042 28.5208 36.7125 28.7125C36.5208 28.9042 36.2833 29 36 29C35.7167 29 35.4792 28.9042 35.2875 28.7125C35.0958 28.5208 35 28.2833 35 28V20H24V32H29C29.2833 32 29.5208 32.0958 29.7125 32.2875C29.9042 32.4792 30 32.7167 30 33C30 33.2833 29.9042 33.5208 29.7125 33.7125C29.5208 33.9042 29.2833 34 29 34H21V35C21 35.2833 21.0958 35.5208 21.2875 35.7125C21.4792 35.9042 21.7167 36 22 36H29C29.2833 36 29.5208 36.0958 29.7125 36.2875C29.9042 36.4792 30 36.7167 30 37C30 37.2833 29.9042 37.5208 29.7125 37.7125C29.5208 37.9042 29.2833 38 29 38H22ZM26 25C25.7167 25 25.4792 24.9042 25.2875 24.7125C25.0958 24.5208 25 24.2833 25 24C25 23.7167 25.0958 23.4792 25.2875 23.2875C25.4792 23.0958 25.7167 23 26 23H33C33.2833 23 33.5208 23.0958 33.7125 23.2875C33.9042 23.4792 34 23.7167 34 24C34 24.2833 33.9042 24.5208 33.7125 24.7125C33.5208 24.9042 33.2833 25 33 25H26ZM26 28C25.7167 28 25.4792 27.9042 25.2875 27.7125C25.0958 27.5208 25 27.2833 25 27C25 26.7167 25.0958 26.4792 25.2875 26.2875C25.4792 26.0958 25.7167 26 26 26H33C33.2833 26 33.5208 26.0958 33.7125 26.2875C33.9042 26.4792 34 26.7167 34 27C34 27.2833 33.9042 27.5208 33.7125 27.7125C33.5208 27.9042 33.2833 28 33 28H26Z" fill="#009689"/>
</g>
</svg>
