<svg width="56" height="56" viewBox="0 0 56 56" fill="none" xmlns="http://www.w3.org/2000/svg">
<path d="M0 10C0 4.47715 4.47715 0 10 0H46C51.5228 0 56 4.47715 56 10V46C56 51.5228 51.5228 56 46 56H10C4.47715 56 0 51.5228 0 46V10Z" fill="#F0FDFA"/>
<path fill-rule="evenodd" clip-rule="evenodd" d="M29 19.0199C28.8143 19.003 28.5391 19.0001 28.0118 19.0001H24.8C23.9434 19.0001 23.3611 19.0008 22.911 19.0376C22.4726 19.0734 22.2484 19.1384 22.092 19.2181C21.7157 19.4098 21.4097 19.7158 21.218 20.0921C21.1383 20.2485 21.0734 20.4727 21.0376 20.9111C21.0008 21.3612 21 21.9435 21 22.8001V33.2001C21 34.0566 21.0008 34.6389 21.0376 35.089C21.0734 35.5274 21.1383 35.7516 21.218 35.908C21.4097 36.2844 21.7157 36.5903 22.092 36.7821C22.2484 36.8618 22.4726 36.9267 22.911 36.9625C23.3611 36.9993 23.9434 37.0001 24.8 37.0001H31.2C32.0566 37.0001 32.6389 36.9993 33.089 36.9625C33.5274 36.9267 33.7516 36.8618 33.908 36.7821C34.2843 36.5903 34.5903 36.2844 34.782 35.908C34.8617 35.7516 34.9266 35.5274 34.9624 35.089C34.9992 34.6389 35 34.0566 35 33.2001V25.9883C35 25.461 34.9971 25.1858 34.9802 25.0001L31.5681 25.0001C31.3157 25.0002 31.0699 25.0002 30.8618 24.9832C30.6332 24.9645 30.3634 24.9204 30.092 24.7821C29.7157 24.5904 29.4097 24.2844 29.218 23.9081C29.0797 23.6367 29.0356 23.367 29.0169 23.1384C28.9999 22.9302 29 22.6844 29 22.432L29 19.0199ZM30.3936 17.35C30.1677 17.2488 29.9326 17.1685 29.6911 17.1106C29.2284 16.9995 28.7487 16.9997 28.1137 17C28.0801 17 28.0462 17.0001 28.0118 17.0001L24.7587 17.0001C23.9537 17 23.2894 17 22.7482 17.0443C22.1861 17.0902 21.6694 17.1887 21.184 17.436C20.4314 17.8195 19.8195 18.4315 19.436 19.1841C19.1887 19.6694 19.0901 20.1861 19.0442 20.7482C19 21.2894 19 21.9538 19 22.7588V33.2414C19 34.0463 19 34.7107 19.0442 35.2519C19.0901 35.814 19.1887 36.3307 19.436 36.816C19.8195 37.5687 20.4314 38.1806 21.184 38.5641C21.6694 38.8114 22.1861 38.9099 22.7482 38.9559C23.2894 39.0001 23.9537 39.0001 24.7587 39.0001H31.2413C32.0463 39.0001 32.7106 39.0001 33.2518 38.9559C33.8139 38.9099 34.3306 38.8114 34.816 38.5641C35.5686 38.1806 36.1805 37.5687 36.564 36.816C36.8113 36.3307 36.9099 35.814 36.9558 35.2519C37 34.7107 37 34.0463 37 33.2414V25.9883C37 25.9539 37 25.9199 37 25.8864C37.0003 25.2514 37.0006 24.7716 36.8895 24.3089C36.8317 24.0682 36.7518 23.8337 36.6509 23.6084C36.6447 23.5937 36.6381 23.5793 36.6311 23.5649C36.5658 23.4236 36.4922 23.2859 36.4106 23.1527C36.1619 22.747 35.8225 22.4079 35.3733 21.9591C35.3496 21.9354 35.3255 21.9114 35.3012 21.8871L32.113 18.6988C32.0887 18.6745 32.0647 18.6505 32.041 18.6268C31.5922 18.1776 31.2531 17.8381 30.8474 17.5895C30.7136 17.5076 30.5754 17.4337 30.4334 17.3681C30.4203 17.3618 30.407 17.3558 30.3936 17.35ZM31 20.4143V22.4001C31 22.6967 31.0008 22.8589 31.0103 22.9755C31.0107 22.9801 31.0111 22.9845 31.0114 22.9887C31.0156 22.9891 31.02 22.9895 31.0246 22.9898C31.1412 22.9994 31.3035 23.0001 31.6 23.0001H33.5859L31 20.4143ZM23 29.0001C23 28.4478 23.4477 28.0001 24 28.0001H32C32.5523 28.0001 33 28.4478 33 29.0001C33 29.5523 32.5523 30.0001 32 30.0001H24C23.4477 30.0001 23 29.5523 23 29.0001ZM23 33.0001C23 32.4478 23.4477 32.0001 24 32.0001H30C30.5523 32.0001 31 32.4478 31 33.0001C31 33.5523 30.5523 34.0001 30 34.0001H24C23.4477 34.0001 23 33.5523 23 33.0001Z" fill="#009689"/>
</svg>
