<svg width="18" height="18" viewBox="0 0 18 18" fill="none" xmlns="http://www.w3.org/2000/svg">
<path fill-rule="evenodd" clip-rule="evenodd" d="M5.81903 1.5L6.75 1.5C7.16421 1.5 7.5 1.83579 7.5 2.25C7.5 2.66421 7.16421 3 6.75 3H5.85C5.20757 3 4.77085 3.00058 4.43328 3.02816C4.10447 3.05503 3.93632 3.10372 3.81902 3.16349C3.53677 3.3073 3.3073 3.53677 3.16349 3.81901C3.10372 3.93631 3.05503 4.10447 3.02816 4.43328C3.00058 4.77085 3 5.20757 3 5.85V12.15C3 12.7924 3.00058 13.2292 3.02816 13.5667C3.05503 13.8955 3.10372 14.0637 3.16349 14.181C3.3073 14.4632 3.53677 14.6927 3.81902 14.8365C3.93632 14.8963 4.10447 14.945 4.43328 14.9718C4.77085 14.9994 5.20757 15 5.85 15H6.75C7.16421 15 7.5 15.3358 7.5 15.75C7.5 16.1642 7.16421 16.5 6.75 16.5H5.81901C5.21529 16.5 4.71702 16.5 4.31113 16.4669C3.88956 16.4324 3.50203 16.3585 3.13803 16.173C2.57354 15.8854 2.1146 15.4265 1.82698 14.862C1.64151 14.498 1.56759 14.1104 1.53315 13.6889C1.49998 13.283 1.49999 12.7847 1.5 12.181V5.81903C1.49999 5.2153 1.49998 4.71703 1.53315 4.31113C1.56759 3.88956 1.64151 3.50203 1.82698 3.13803C2.1146 2.57354 2.57354 2.1146 3.13803 1.82698C3.50203 1.64151 3.88956 1.56759 4.31113 1.53315C4.71703 1.49998 5.2153 1.49999 5.81903 1.5ZM11.4697 4.71967C11.7626 4.42678 12.2374 4.42678 12.5303 4.71967L16.2803 8.46967C16.5732 8.76256 16.5732 9.23744 16.2803 9.53033L12.5303 13.2803C12.2374 13.5732 11.7626 13.5732 11.4697 13.2803C11.1768 12.9874 11.1768 12.5126 11.4697 12.2197L13.9393 9.75H6.75C6.33579 9.75 6 9.41421 6 9C6 8.58579 6.33579 8.25 6.75 8.25H13.9393L11.4697 5.78033C11.1768 5.48744 11.1768 5.01256 11.4697 4.71967Z" fill="#111111"/>
</svg>
