<svg width="56" height="56" viewBox="0 0 56 56" fill="none" xmlns="http://www.w3.org/2000/svg">
<path d="M0 10C0 4.47715 4.47715 0 10 0H46C51.5228 0 56 4.47715 56 10V46C56 51.5228 51.5228 56 46 56H10C4.47715 56 0 51.5228 0 46V10Z" fill="#F0FDFA"/>
<mask id="mask0_64_510" style="mask-type:alpha" maskUnits="userSpaceOnUse" x="16" y="16" width="24" height="24">
<rect x="16" y="16" width="24" height="24" fill="#D9D9D9"/>
</mask>
<g mask="url(#mask0_64_510)">
<path d="M30 37V35.35C30 35.2167 30.025 35.0875 30.075 34.9625C30.125 34.8375 30.2 34.725 30.3 34.625L35.525 29.425C35.675 29.275 35.8417 29.1667 36.025 29.1C36.2083 29.0333 36.3917 29 36.575 29C36.775 29 36.9667 29.0375 37.15 29.1125C37.3333 29.1875 37.5 29.3 37.65 29.45L38.575 30.375C38.7083 30.525 38.8125 30.6917 38.8875 30.875C38.9625 31.0583 39 31.2417 39 31.425C39 31.6083 38.9667 31.7958 38.9 31.9875C38.8333 32.1792 38.725 32.35 38.575 32.5L33.375 37.7C33.275 37.8 33.1625 37.875 33.0375 37.925C32.9125 37.975 32.7833 38 32.65 38H31C30.7167 38 30.4792 37.9042 30.2875 37.7125C30.0958 37.5208 30 37.2833 30 37ZM31.5 36.5H32.45L35.475 33.45L34.55 32.525L31.5 35.55V36.5ZM22 38C21.45 38 20.9792 37.8042 20.5875 37.4125C20.1958 37.0208 20 36.55 20 36V20C20 19.45 20.1958 18.9792 20.5875 18.5875C20.9792 18.1958 21.45 18 22 18H29.175C29.4417 18 29.6958 18.05 29.9375 18.15C30.1792 18.25 30.3917 18.3917 30.575 18.575L35.425 23.425C35.6083 23.6083 35.75 23.8208 35.85 24.0625C35.95 24.3042 36 24.5583 36 24.825V26.25C36 26.5333 35.9042 26.7708 35.7125 26.9625C35.5208 27.1542 35.2833 27.25 35 27.25C34.7167 27.25 34.4792 27.1542 34.2875 26.9625C34.0958 26.7708 34 26.5333 34 26.25V25H30C29.7167 25 29.4792 24.9042 29.2875 24.7125C29.0958 24.5208 29 24.2833 29 24V20H22V36H27C27.2833 36 27.5208 36.0958 27.7125 36.2875C27.9042 36.4792 28 36.7167 28 37C28 37.2833 27.9042 37.5208 27.7125 37.7125C27.5208 37.9042 27.2833 38 27 38H22ZM35.025 32.975L34.55 32.525L35.475 33.45L35.025 32.975Z" fill="#009689"/>
</g>
</svg>
