<svg width="18" height="18" viewBox="0 0 18 18" fill="none" xmlns="http://www.w3.org/2000/svg">
<mask id="mask0_31_579" style="mask-type:alpha" maskUnits="userSpaceOnUse" x="0" y="0" width="18" height="18">
<rect width="18" height="18" transform="matrix(-1 0 0 1 18 0)" fill="#D9D9D9"/>
</mask>
<g mask="url(#mask0_31_579)">
<path d="M11.1765 8.99414L5.52692 14.6437C5.37792 14.7927 5.30535 14.9701 5.30923 15.1758C5.3131 15.3816 5.38954 15.559 5.53854 15.7081C5.68754 15.8571 5.86492 15.9316 6.07067 15.9316C6.27642 15.9316 6.45385 15.8571 6.60298 15.7081L12.3448 9.9547C12.4803 9.81908 12.5807 9.66714 12.6461 9.49889C12.7116 9.33064 12.7444 9.16239 12.7444 8.99414C12.7444 8.82589 12.7116 8.65764 12.6461 8.48939C12.5807 8.32114 12.4803 8.1692 12.3448 8.03358L6.59136 2.28014C6.44236 2.13114 6.26692 2.05858 6.06504 2.06245C5.86304 2.06633 5.68754 2.14277 5.53854 2.29177C5.38954 2.44077 5.31504 2.61814 5.31504 2.82389C5.31504 3.02964 5.38954 3.20708 5.53854 3.3562L11.1765 8.99414Z" fill="#4D4D4D"/>
</g>
</svg>
