<svg width="20" height="20" viewBox="0 0 20 20" fill="none" xmlns="http://www.w3.org/2000/svg">
<mask id="mask0_24_2925" style="mask-type:alpha" maskUnits="userSpaceOnUse" x="0" y="0" width="20" height="20">
<rect width="20" height="20" fill="#D9D9D9"/>
</mask>
<g mask="url(#mask0_24_2925)">
<path d="M5.25646 17.9163C4.83549 17.9163 4.47917 17.7705 4.1875 17.4788C3.89583 17.1872 3.75 16.8309 3.75 16.4099V3.58947C3.75 3.16849 3.89583 2.81217 4.1875 2.52051C4.47917 2.22884 4.83549 2.08301 5.25646 2.08301H11.609C11.8353 2.08301 12.0491 2.1303 12.2502 2.22488C12.4515 2.31933 12.6213 2.45474 12.7596 2.63113L15.8942 6.39238C16.0065 6.53085 16.0939 6.6819 16.1562 6.84551C16.2187 7.00926 16.25 7.1803 16.25 7.35863V16.1534C16.25 16.4916 16.0959 16.7234 15.7877 16.8486C15.4794 16.9739 15.2067 16.9179 14.9696 16.6807L11.5544 13.2913C11.3183 13.4494 11.0732 13.5653 10.8192 13.639C10.5651 13.7128 10.2921 13.7497 10 13.7497C9.19792 13.7497 8.51132 13.464 7.94021 12.8928C7.36896 12.3217 7.08333 11.6351 7.08333 10.833C7.08333 10.0309 7.36896 9.34433 7.94021 8.77322C8.51132 8.20197 9.19792 7.91634 10 7.91634C10.8021 7.91634 11.4887 8.20197 12.0598 8.77322C12.631 9.34433 12.9167 10.0309 12.9167 10.833C12.9167 11.1365 12.8785 11.4151 12.8021 11.6688C12.7257 11.9225 12.6111 12.162 12.4583 12.3874L15 14.9709V7.24967L11.7083 3.33301H5.25646C5.19229 3.33301 5.13354 3.35974 5.08021 3.41322C5.02674 3.46655 5 3.5253 5 3.58947V16.4099C5 16.4741 5.02674 16.5328 5.08021 16.5861C5.13354 16.6396 5.19229 16.6663 5.25646 16.6663H12.3142C12.5225 16.6663 12.6788 16.7313 12.7829 16.8611C12.8871 16.9911 12.9392 17.134 12.9392 17.2899C12.9392 17.4457 12.8871 17.5891 12.7829 17.7201C12.6788 17.8509 12.5225 17.9163 12.3142 17.9163H5.25646ZM10 12.4997C10.4583 12.4997 10.8507 12.3365 11.1771 12.0101C11.5035 11.6837 11.6667 11.2913 11.6667 10.833C11.6667 10.3747 11.5035 9.98231 11.1771 9.65592C10.8507 9.32954 10.4583 9.16634 10 9.16634C9.54167 9.16634 9.14931 9.32954 8.82292 9.65592C8.49653 9.98231 8.33333 10.3747 8.33333 10.833C8.33333 11.2913 8.49653 11.6837 8.82292 12.0101C9.14931 12.3365 9.54167 12.4997 10 12.4997Z" fill="#5D5D5D"/>
<path d="M5.25646 17.9163C4.83549 17.9163 4.47917 17.7705 4.1875 17.4788C3.89583 17.1872 3.75 16.8309 3.75 16.4099V3.58947C3.75 3.16849 3.89583 2.81217 4.1875 2.52051C4.47917 2.22884 4.83549 2.08301 5.25646 2.08301H11.609C11.8353 2.08301 12.0491 2.1303 12.2502 2.22488C12.4515 2.31933 12.6213 2.45474 12.7596 2.63113L15.8942 6.39238C16.0065 6.53085 16.0939 6.6819 16.1562 6.84551C16.2187 7.00926 16.25 7.1803 16.25 7.35863V16.1534C16.25 16.4916 16.0959 16.7234 15.7877 16.8486C15.4794 16.9739 15.2067 16.9179 14.9696 16.6807L11.5544 13.2913C11.3183 13.4494 11.0732 13.5653 10.8192 13.639C10.5651 13.7128 10.2921 13.7497 10 13.7497C9.19792 13.7497 8.51132 13.464 7.94021 12.8928C7.36896 12.3217 7.08333 11.6351 7.08333 10.833C7.08333 10.0309 7.36896 9.34433 7.94021 8.77322C8.51132 8.20197 9.19792 7.91634 10 7.91634C10.8021 7.91634 11.4887 8.20197 12.0598 8.77322C12.631 9.34433 12.9167 10.0309 12.9167 10.833C12.9167 11.1365 12.8785 11.4151 12.8021 11.6688C12.7257 11.9225 12.6111 12.162 12.4583 12.3874L15 14.9709V7.24967L11.7083 3.33301H5.25646C5.19229 3.33301 5.13354 3.35974 5.08021 3.41322C5.02674 3.46655 5 3.5253 5 3.58947V16.4099C5 16.4741 5.02674 16.5328 5.08021 16.5861C5.13354 16.6396 5.19229 16.6663 5.25646 16.6663H12.3142C12.5225 16.6663 12.6788 16.7313 12.7829 16.8611C12.8871 16.9911 12.9392 17.134 12.9392 17.2899C12.9392 17.4457 12.8871 17.5891 12.7829 17.7201C12.6788 17.8509 12.5225 17.9163 12.3142 17.9163H5.25646ZM10 12.4997C10.4583 12.4997 10.8507 12.3365 11.1771 12.0101C11.5035 11.6837 11.6667 11.2913 11.6667 10.833C11.6667 10.3747 11.5035 9.98231 11.1771 9.65592C10.8507 9.32954 10.4583 9.16634 10 9.16634C9.54167 9.16634 9.14931 9.32954 8.82292 9.65592C8.49653 9.98231 8.33333 10.3747 8.33333 10.833C8.33333 11.2913 8.49653 11.6837 8.82292 12.0101C9.14931 12.3365 9.54167 12.4997 10 12.4997Z" fill="white"/>
</g>
</svg>
