<svg width="20" height="20" viewBox="0 0 20 20" fill="none" xmlns="http://www.w3.org/2000/svg">
<mask id="mask0_24_2931" style="mask-type:alpha" maskUnits="userSpaceOnUse" x="0" y="0" width="20" height="20">
<rect width="20" height="20" fill="#D9D9D9"/>
</mask>
<g mask="url(#mask0_24_2931)">
<path d="M9.99984 8.57408C9.82248 8.57408 9.674 8.63387 9.55442 8.75345C9.4347 8.87317 9.37484 9.02171 9.37484 9.19908V12.2824L8.27234 11.1799C8.15692 11.0645 8.01185 11.0055 7.83713 11.0028C7.66255 11 7.51484 11.0591 7.394 11.1799C7.27331 11.3006 7.21296 11.4469 7.21296 11.6189C7.21296 11.791 7.27331 11.9373 7.394 12.058L9.47255 14.1366C9.62324 14.2871 9.799 14.3624 9.99984 14.3624C10.2007 14.3624 10.3764 14.2871 10.5271 14.1366L12.6057 12.058C12.7209 11.9426 12.78 11.7975 12.7828 11.6228C12.7854 11.4482 12.7264 11.3006 12.6057 11.1799C12.4848 11.0591 12.3384 10.9987 12.1665 10.9987C11.9946 10.9987 11.8482 11.0591 11.7273 11.1799L10.6248 12.2824V9.19908C10.6248 9.02171 10.565 8.87317 10.4453 8.75345C10.3257 8.63387 10.1772 8.57408 9.99984 8.57408ZM4.1665 6.58678V15.5772C4.1665 15.6521 4.19053 15.7135 4.23859 15.7616C4.28664 15.8096 4.3481 15.8337 4.42296 15.8337H15.5767C15.6516 15.8337 15.713 15.8096 15.7611 15.7616C15.8091 15.7135 15.8332 15.6521 15.8332 15.5772V6.58678H4.1665ZM4.48713 17.0837C4.07143 17.0837 3.70574 16.9258 3.39005 16.6101C3.07435 16.2944 2.9165 15.9287 2.9165 15.513V5.83845C2.9165 5.66012 2.94511 5.48998 3.00234 5.32803C3.05942 5.16623 3.14512 5.01692 3.25942 4.88012L4.42942 3.46512C4.56609 3.28664 4.73699 3.15067 4.94213 3.0572C5.14727 2.96373 5.36414 2.91699 5.59275 2.91699H14.3909C14.6195 2.91699 14.8377 2.96373 15.0455 3.0572C15.2532 3.15067 15.4255 3.28664 15.5623 3.46512L16.7403 4.89616C16.8546 5.03296 16.9403 5.18359 16.9973 5.34803C17.0546 5.51262 17.0832 5.68415 17.0832 5.86262V15.513C17.0832 15.9287 16.9253 16.2944 16.6096 16.6101C16.2939 16.9258 15.9282 17.0837 15.5125 17.0837H4.48713ZM4.49192 5.33699H15.4998L14.5911 4.25512C14.5644 4.22845 14.5337 4.20706 14.499 4.19095C14.4643 4.17498 14.4282 4.16699 14.3909 4.16699H5.60088C5.56352 4.16699 5.52741 4.17498 5.49255 4.19095C5.45782 4.20706 5.42713 4.22845 5.40046 4.25512L4.49192 5.33699Z" fill="#5D5D5D"/>
</g>
</svg>
