<svg width="20" height="20" viewBox="0 0 20 20" fill="none" xmlns="http://www.w3.org/2000/svg">
<mask id="mask0_24_2919" style="mask-type:alpha" maskUnits="userSpaceOnUse" x="0" y="0" width="20" height="20">
<rect width="20" height="20" fill="#D9D9D9"/>
</mask>
<g mask="url(#mask0_24_2919)">
<path d="M8.28505 5.99322H14.2146C14.3917 5.99322 14.5401 6.05315 14.6598 6.17301C14.7797 6.29287 14.8396 6.44141 14.8396 6.61863C14.8396 6.79572 14.7797 6.94412 14.6598 7.06384C14.5401 7.18342 14.3917 7.24322 14.2146 7.24322H8.28505C8.10796 7.24322 7.95956 7.18329 7.83984 7.06342C7.71998 6.94356 7.66005 6.79509 7.66005 6.61801C7.66005 6.44079 7.71998 6.29238 7.83984 6.1728C7.95956 6.05308 8.10796 5.99322 8.28505 5.99322ZM8.28505 8.39717H14.2146C14.3917 8.39717 14.5401 8.45711 14.6598 8.57697C14.7797 8.69669 14.8396 8.84516 14.8396 9.02238C14.8396 9.19961 14.7797 9.34801 14.6598 9.46759C14.5401 9.58731 14.3917 9.64717 14.2146 9.64717H8.28505C8.10796 9.64717 7.95956 9.58724 7.83984 9.46738C7.71998 9.34752 7.66005 9.19898 7.66005 9.02176C7.66005 8.84467 7.71998 8.69627 7.83984 8.57655C7.95956 8.45697 8.10796 8.39717 8.28505 8.39717ZM4.99984 17.9163C4.41761 17.9163 3.92484 17.7147 3.5215 17.3113C3.11817 16.908 2.9165 16.4152 2.9165 15.833V14.1824C2.9165 13.9689 2.98873 13.79 3.13317 13.6457C3.27748 13.5014 3.45637 13.4293 3.66984 13.4293H5.4165V3.58947C5.4165 3.17516 5.564 2.82051 5.859 2.52551C6.154 2.23051 6.50866 2.08301 6.92296 2.08301H15.5767C15.991 2.08301 16.3457 2.23051 16.6407 2.52551C16.9357 2.82051 17.0832 3.17516 17.0832 3.58947V8.50926C17.0832 8.68634 17.0232 8.83481 16.9034 8.95468C16.7835 9.0744 16.635 9.13426 16.458 9.13426C16.2807 9.13426 16.1323 9.0744 16.0128 8.95468C15.893 8.83481 15.8332 8.68634 15.8332 8.50926V3.58947C15.8332 3.5146 15.8091 3.45315 15.7611 3.40509C15.713 3.35704 15.6516 3.33301 15.5767 3.33301H6.92296C6.8481 3.33301 6.78664 3.35704 6.73859 3.40509C6.69053 3.45315 6.6665 3.5146 6.6665 3.58947V13.4293H9.31067C9.48775 13.4293 9.63623 13.4891 9.75609 13.6088C9.87581 13.7287 9.93567 13.8772 9.93567 14.0545C9.93567 14.2315 9.87581 14.38 9.75609 14.4997C9.63623 14.6193 9.48775 14.679 9.31067 14.679H4.1665V15.833C4.1665 16.0691 4.24637 16.267 4.40609 16.4268C4.56581 16.5865 4.76373 16.6663 4.99984 16.6663H9.31067C9.48775 16.6663 9.63623 16.7263 9.75609 16.8461C9.87581 16.966 9.93567 17.1145 9.93567 17.2915C9.93567 17.4688 9.87581 17.6172 9.75609 17.7368C9.63623 17.8565 9.48775 17.9163 9.31067 17.9163H4.99984ZM11.7628 17.163V16.0284C11.7628 15.9304 11.7809 15.8354 11.8171 15.7434C11.8535 15.6515 11.9107 15.5665 11.9886 15.4884L16.2867 11.2111C16.3903 11.1075 16.5022 11.0346 16.6223 10.9924C16.7425 10.9503 16.8626 10.9293 16.9828 10.9293C17.1137 10.9293 17.2405 10.9538 17.363 11.0028C17.4855 11.052 17.5968 11.1257 17.6969 11.224L18.4678 12.0028C18.5575 12.1065 18.6269 12.2188 18.6761 12.3395C18.7253 12.4602 18.7498 12.5809 18.7498 12.7015C18.7498 12.8222 18.7274 12.9451 18.6825 13.0701C18.6377 13.1951 18.5661 13.3094 18.4678 13.413L14.1905 17.6903C14.1125 17.7684 14.0276 17.8255 13.9357 17.8618C13.8436 17.8981 13.7485 17.9163 13.6505 17.9163H12.5159C12.3024 17.9163 12.1235 17.8441 11.9792 17.6997C11.8349 17.5554 11.7628 17.3765 11.7628 17.163ZM12.7563 16.9228H13.548L16.253 14.2047L15.87 13.8088L15.4821 13.418L12.7563 16.1311V16.9228ZM15.87 13.8088L15.4821 13.418L16.253 14.2047L15.87 13.8088Z" fill="#5D5D5D"/>
</g>
</svg>
