<svg width="20" height="20" viewBox="0 0 20 20" fill="none" xmlns="http://www.w3.org/2000/svg">
<mask id="mask0_24_2947" style="mask-type:alpha" maskUnits="userSpaceOnUse" x="0" y="0" width="20" height="20">
<rect width="20" height="20" fill="#D9D9D9"/>
</mask>
<g mask="url(#mask0_24_2947)">
<path d="M5.25644 17.9163C4.84213 17.9163 4.48748 17.7688 4.19248 17.4738C3.89748 17.1788 3.74998 16.8242 3.74998 16.4099V14.583C3.74998 14.4059 3.80991 14.2575 3.92977 14.1376C4.04963 14.0179 4.19811 13.958 4.37519 13.958C4.55241 13.958 4.70081 14.0179 4.8204 14.1376C4.94012 14.2575 4.99998 14.4059 4.99998 14.583V16.4099C4.99998 16.4847 5.02401 16.5462 5.07206 16.5943C5.12012 16.6423 5.18158 16.6663 5.25644 16.6663H14.7435C14.8184 16.6663 14.8798 16.6423 14.9279 16.5943C14.976 16.5462 15 16.4847 15 16.4099V14.583C15 14.4059 15.0599 14.2575 15.1798 14.1376C15.2996 14.0179 15.4481 13.958 15.6252 13.958C15.8024 13.958 15.9508 14.0179 16.0704 14.1376C16.1901 14.2575 16.25 14.4059 16.25 14.583V16.4099C16.25 16.8242 16.1025 17.1788 15.8075 17.4738C15.5125 17.7688 15.1578 17.9163 14.7435 17.9163H5.25644ZM3.74998 3.58947C3.74998 3.17516 3.89748 2.82051 4.19248 2.52551C4.48748 2.23051 4.84213 2.08301 5.25644 2.08301H11.2516C11.4548 2.08301 11.6485 2.12204 11.8327 2.20009C12.0169 2.27801 12.1773 2.38537 12.3141 2.52217L15.8108 6.01884C15.9476 6.15565 16.055 6.31613 16.1329 6.5003C16.211 6.68447 16.25 6.87815 16.25 7.08134V8.74967C16.25 8.92676 16.1901 9.07523 16.0702 9.19509C15.9503 9.31481 15.8019 9.37467 15.6248 9.37467C15.4476 9.37467 15.2991 9.31481 15.1796 9.19509C15.0598 9.07523 15 8.92676 15 8.74967V7.08301H11.9998C11.7873 7.08301 11.6092 7.01113 11.4656 6.86738C11.3219 6.72363 11.25 6.54551 11.25 6.33301V3.33301H5.25644C5.18158 3.33301 5.12012 3.35704 5.07206 3.40509C5.02401 3.45315 4.99998 3.5146 4.99998 3.58947V8.74967C4.99998 8.92676 4.94005 9.07523 4.82019 9.19509C4.70033 9.31481 4.55186 9.37467 4.37477 9.37467C4.19755 9.37467 4.04915 9.31481 3.92956 9.19509C3.80984 9.07523 3.74998 8.92676 3.74998 8.74967V3.58947ZM18.3012 12.2913H1.69873C1.52165 12.2913 1.37317 12.2314 1.25331 12.1115C1.13359 11.9917 1.07373 11.8432 1.07373 11.6661C1.07373 11.4889 1.13359 11.3405 1.25331 11.2209C1.37317 11.1012 1.52165 11.0413 1.69873 11.0413H18.3012C18.4783 11.0413 18.6268 11.1013 18.7466 11.2211C18.8664 11.341 18.9262 11.4895 18.9262 11.6665C18.9262 11.8438 18.8664 11.9922 18.7466 12.1118C18.6268 12.2315 18.4783 12.2913 18.3012 12.2913Z" fill="#5D5D5D"/>
</g>
</svg>
