<svg width="32" height="32" viewBox="0 0 32 32" fill="none" xmlns="http://www.w3.org/2000/svg">
<path d="M0 10C0 4.47715 4.47715 0 10 0H22C27.5228 0 32 4.47715 32 10V22C32 27.5228 27.5228 32 22 32H10C4.47715 32 0 27.5228 0 22V10Z" fill="#F3F4F6"/>
<mask id="mask0_28_578" style="mask-type:alpha" maskUnits="userSpaceOnUse" x="7" y="7" width="18" height="18">
<rect x="7" y="7" width="18" height="18" fill="#D9D9D9"/>
</mask>
<g mask="url(#mask0_28_578)">
<path d="M15.4375 17.125C15.9125 17.125 16.3125 16.9625 16.6375 16.6375C16.9625 16.3125 17.125 15.9125 17.125 15.4375C17.125 14.9625 16.9625 14.5625 16.6375 14.2375C16.3125 13.9125 15.9125 13.75 15.4375 13.75C14.9625 13.75 14.5625 13.9125 14.2375 14.2375C13.9125 14.5625 13.75 14.9625 13.75 15.4375C13.75 15.9125 13.9125 16.3125 14.2375 16.6375C14.5625 16.9625 14.9625 17.125 15.4375 17.125ZM15.4375 18.625C14.55 18.625 13.7969 18.3156 13.1781 17.6969C12.5594 17.0781 12.25 16.325 12.25 15.4375C12.25 14.55 12.5594 13.7969 13.1781 13.1781C13.7969 12.5594 14.55 12.25 15.4375 12.25C16.325 12.25 17.0781 12.5594 17.6969 13.1781C18.3156 13.7969 18.625 14.55 18.625 15.4375C18.625 15.725 18.5844 16.0094 18.5031 16.2906C18.4219 16.5719 18.3 16.8375 18.1375 17.0875L19.6 18.55C19.75 18.7 19.8219 18.875 19.8156 19.075C19.8094 19.275 19.7313 19.45 19.5813 19.6C19.4313 19.7375 19.2562 19.8094 19.0562 19.8156C18.8562 19.8219 18.6812 19.75 18.5312 19.6L17.0875 18.1562C16.8375 18.3188 16.5719 18.4375 16.2906 18.5125C16.0094 18.5875 15.725 18.625 15.4375 18.625ZM10.75 22.75C10.3375 22.75 9.98438 22.6031 9.69063 22.3094C9.39688 22.0156 9.25 21.6625 9.25 21.25V19C9.25 18.7875 9.32187 18.6094 9.46562 18.4656C9.60938 18.3219 9.7875 18.25 10 18.25C10.2125 18.25 10.3906 18.3219 10.5344 18.4656C10.6781 18.6094 10.75 18.7875 10.75 19V21.25H13C13.2125 21.25 13.3906 21.3219 13.5344 21.4656C13.6781 21.6094 13.75 21.7875 13.75 22C13.75 22.2125 13.6781 22.3906 13.5344 22.5344C13.3906 22.6781 13.2125 22.75 13 22.75H10.75ZM21.25 22.75H19C18.7875 22.75 18.6094 22.6781 18.4656 22.5344C18.3219 22.3906 18.25 22.2125 18.25 22C18.25 21.7875 18.3219 21.6094 18.4656 21.4656C18.6094 21.3219 18.7875 21.25 19 21.25H21.25V19C21.25 18.7875 21.3219 18.6094 21.4656 18.4656C21.6094 18.3219 21.7875 18.25 22 18.25C22.2125 18.25 22.3906 18.3219 22.5344 18.4656C22.6781 18.6094 22.75 18.7875 22.75 19V21.25C22.75 21.6625 22.6031 22.0156 22.3094 22.3094C22.0156 22.6031 21.6625 22.75 21.25 22.75ZM9.25 13V10.75C9.25 10.3375 9.39688 9.98438 9.69063 9.69063C9.98438 9.39688 10.3375 9.25 10.75 9.25H13C13.2125 9.25 13.3906 9.32187 13.5344 9.46562C13.6781 9.60938 13.75 9.7875 13.75 10C13.75 10.2125 13.6781 10.3906 13.5344 10.5344C13.3906 10.6781 13.2125 10.75 13 10.75H10.75V13C10.75 13.2125 10.6781 13.3906 10.5344 13.5344C10.3906 13.6781 10.2125 13.75 10 13.75C9.7875 13.75 9.60938 13.6781 9.46562 13.5344C9.32187 13.3906 9.25 13.2125 9.25 13ZM21.25 13V10.75H19C18.7875 10.75 18.6094 10.6781 18.4656 10.5344C18.3219 10.3906 18.25 10.2125 18.25 10C18.25 9.7875 18.3219 9.60938 18.4656 9.46562C18.6094 9.32187 18.7875 9.25 19 9.25H21.25C21.6625 9.25 22.0156 9.39688 22.3094 9.69063C22.6031 9.98438 22.75 10.3375 22.75 10.75V13C22.75 13.2125 22.6781 13.3906 22.5344 13.5344C22.3906 13.6781 22.2125 13.75 22 13.75C21.7875 13.75 21.6094 13.6781 21.4656 13.5344C21.3219 13.3906 21.25 13.2125 21.25 13Z" fill="#555F6E"/>
</g>
</svg>
