<svg width="20" height="20" viewBox="0 0 20 20" fill="none" xmlns="http://www.w3.org/2000/svg">
<mask id="mask0_24_2911" style="mask-type:alpha" maskUnits="userSpaceOnUse" x="0" y="0" width="20" height="20">
<rect width="20" height="20" fill="#D9D9D9"/>
</mask>
<g mask="url(#mask0_24_2911)">
<path d="M3.58995 16.25C3.16898 16.25 2.81266 16.1042 2.521 15.8125C2.22933 15.5208 2.0835 15.1645 2.0835 14.7435V5.25646C2.0835 4.83549 2.22933 4.47917 2.521 4.1875C2.81266 3.89583 3.16898 3.75 3.58995 3.75H16.4104C16.8313 3.75 17.1877 3.89583 17.4793 4.1875C17.771 4.47917 17.9168 4.83549 17.9168 5.25646V14.7435C17.9168 15.1645 17.771 15.5208 17.4793 15.8125C17.1877 16.1042 16.8313 16.25 16.4104 16.25H3.58995ZM3.58995 15H9.37516V5H3.58995C3.52579 5 3.46704 5.02674 3.4137 5.08021C3.36023 5.13354 3.3335 5.19229 3.3335 5.25646V14.7435C3.3335 14.8077 3.36023 14.8665 3.4137 14.9198C3.46704 14.9733 3.52579 15 3.58995 15ZM10.6252 15H16.4104C16.4745 15 16.5333 14.9733 16.5866 14.9198C16.6401 14.8665 16.6668 14.8077 16.6668 14.7435V5.25646C16.6668 5.19229 16.6401 5.13354 16.5866 5.08021C16.5333 5.02674 16.4745 5 16.4104 5H10.6252V15ZM15.3047 12.3719C15.4478 12.3719 15.5663 12.3249 15.6604 12.2308C15.7544 12.1368 15.8014 12.0182 15.8014 11.875C15.8014 11.7318 15.7544 11.6132 15.6604 11.5192C15.5663 11.4251 15.4478 11.3781 15.3047 11.3781H11.9872C11.8442 11.3781 11.7256 11.4251 11.6316 11.5192C11.5376 11.6132 11.4906 11.7318 11.4906 11.875C11.4906 12.0182 11.5376 12.1368 11.6316 12.2308C11.7256 12.3249 11.8442 12.3719 11.9872 12.3719H15.3047ZM15.3047 10.2885C15.4478 10.2885 15.5663 10.2415 15.6604 10.1475C15.7544 10.0535 15.8014 9.93486 15.8014 9.79167C15.8014 9.64847 15.7544 9.52986 15.6604 9.43583C15.5663 9.34181 15.4478 9.29479 15.3047 9.29479H11.9872C11.8442 9.29479 11.7256 9.34181 11.6316 9.43583C11.5376 9.52986 11.4906 9.64847 11.4906 9.79167C11.4906 9.93486 11.5376 10.0535 11.6316 10.1475C11.7256 10.2415 11.8442 10.2885 11.9872 10.2885H15.3047ZM15.3047 8.20521C15.4478 8.20521 15.5663 8.15819 15.6604 8.06417C15.7544 7.97014 15.8014 7.85153 15.8014 7.70833C15.8014 7.56514 15.7544 7.44653 15.6604 7.3525C15.5663 7.25847 15.4478 7.21146 15.3047 7.21146H11.9872C11.8442 7.21146 11.7256 7.25847 11.6316 7.3525C11.5376 7.44653 11.4906 7.56514 11.4906 7.70833C11.4906 7.85153 11.5376 7.97014 11.6316 8.06417C11.7256 8.15819 11.8442 8.20521 11.9872 8.20521H15.3047Z" fill="#5D5D5D"/>
</g>
</svg>
