<svg width="32" height="32" viewBox="0 0 32 32" fill="none" xmlns="http://www.w3.org/2000/svg">
<path d="M0 10C0 4.47715 4.47715 0 10 0H22C27.5228 0 32 4.47715 32 10V22C32 27.5228 27.5228 32 22 32H10C4.47715 32 0 27.5228 0 22V10Z" fill="#F3F4F6"/>
<mask id="mask0_27_1729" style="mask-type:alpha" maskUnits="userSpaceOnUse" x="7" y="7" width="18" height="18">
<rect x="7" y="7" width="18" height="18" fill="#D9D9D9"/>
</mask>
<g mask="url(#mask0_27_1729)">
<path d="M17.5 22.75V21.5125C17.5 21.4125 17.5187 21.3156 17.5562 21.2219C17.5938 21.1281 17.65 21.0437 17.725 20.9688L21.6438 17.0688C21.7563 16.9563 21.8812 16.875 22.0187 16.825C22.1562 16.775 22.2938 16.75 22.4313 16.75C22.5813 16.75 22.725 16.7781 22.8625 16.8344C23 16.8906 23.125 16.975 23.2375 17.0875L23.9313 17.7812C24.0313 17.8938 24.1094 18.0188 24.1656 18.1562C24.2219 18.2937 24.25 18.4313 24.25 18.5688C24.25 18.7063 24.225 18.8469 24.175 18.9906C24.125 19.1344 24.0438 19.2625 23.9313 19.375L20.0312 23.275C19.9563 23.35 19.8719 23.4063 19.7781 23.4438C19.6844 23.4813 19.5875 23.5 19.4875 23.5H18.25C18.0375 23.5 17.8594 23.4281 17.7156 23.2844C17.5719 23.1406 17.5 22.9625 17.5 22.75ZM18.625 22.375H19.3375L21.6063 20.0875L20.9125 19.3938L18.625 21.6625V22.375ZM11.5 23.5C11.0875 23.5 10.7344 23.3531 10.4406 23.0594C10.1469 22.7656 10 22.4125 10 22V10C10 9.5875 10.1469 9.23438 10.4406 8.94063C10.7344 8.64688 11.0875 8.5 11.5 8.5H16.8813C17.0813 8.5 17.2719 8.5375 17.4531 8.6125C17.6344 8.6875 17.7937 8.79375 17.9312 8.93125L21.5688 12.5688C21.7063 12.7063 21.8125 12.8656 21.8875 13.0469C21.9625 13.2281 22 13.4188 22 13.6188V14.6875C22 14.9 21.9281 15.0781 21.7844 15.2219C21.6406 15.3656 21.4625 15.4375 21.25 15.4375C21.0375 15.4375 20.8594 15.3656 20.7156 15.2219C20.5719 15.0781 20.5 14.9 20.5 14.6875V13.75H17.5C17.2875 13.75 17.1094 13.6781 16.9656 13.5344C16.8219 13.3906 16.75 13.2125 16.75 13V10H11.5V22H15.25C15.4625 22 15.6406 22.0719 15.7844 22.2156C15.9281 22.3594 16 22.5375 16 22.75C16 22.9625 15.9281 23.1406 15.7844 23.2844C15.6406 23.4281 15.4625 23.5 15.25 23.5H11.5ZM21.2688 19.7313L20.9125 19.3938L21.6063 20.0875L21.2688 19.7313Z" fill="#555F6E"/>
</g>
</svg>
