<svg width="18" height="18" viewBox="0 0 18 18" fill="none" xmlns="http://www.w3.org/2000/svg">
<mask id="mask0_22_1248" style="mask-type:alpha" maskUnits="userSpaceOnUse" x="0" y="0" width="18" height="18">
<rect width="18" height="18" transform="matrix(-1 0 0 1 18 0)" fill="#D9D9D9"/>
</mask>
<g mask="url(#mask0_22_1248)">
<path d="M6.87699 9L12.5265 3.35044C12.6755 3.20144 12.7481 3.02406 12.7442 2.81831C12.7404 2.61256 12.6639 2.43512 12.5149 2.286C12.3659 2.137 12.1885 2.0625 11.9828 2.0625C11.777 2.0625 11.5996 2.137 11.4505 2.286L5.70868 8.03944C5.57317 8.17506 5.47274 8.327 5.40736 8.49525C5.34186 8.6635 5.30911 8.83175 5.30911 9C5.30911 9.16825 5.34186 9.3365 5.40736 9.50475C5.47274 9.673 5.57317 9.82494 5.70868 9.96056L11.4621 15.714C11.6111 15.863 11.7865 15.9356 11.9884 15.9317C12.1904 15.9278 12.3659 15.8514 12.5149 15.7024C12.6639 15.5534 12.7384 15.376 12.7384 15.1703C12.7384 14.9645 12.6639 14.7871 12.5149 14.6379L6.87699 9Z" fill="#4D4D4D"/>
</g>
</svg>
